<svg xmlns="http://www.w3.org/2000/svg" viewBox="0 0 154.42 154.89"><defs><style>.cls-1{fill:#FFF;}</style></defs><title>Asset 12</title><g id="Layer_2" data-name="Layer 2"><g id="Layer_1-2" data-name="Layer 1"><path class="cls-1" d="M38.21,38.16a2.12,2.12,0,0,1,.16-.43c.07-.14.13-.23.13-.18s0,.09,0,.19a1.06,1.06,0,0,0,0,.19.36.36,0,0,0,0,.11.41.41,0,0,0,0,.1.09.09,0,0,0-.06,0,.1.1,0,0,0,0,0,.34.34,0,0,0,0,.25s0,.1.07.14l0,.07.06.07c.07.1.15.16.15.19a4.21,4.21,0,0,0,.66.28l.17.06.16.05c.11,0,.22.07.33.09q.63.18,1.2.3a8.81,8.81,0,0,0,2.33.26c-.4,0,1,.23,1.93.32-.14.12.53.17.79.21s.16,0-.06.08-.72.08-1.62.12c1.85-.09,3.47-.07,5-.09a18.79,18.79,0,0,0,4.25-.43l-.94,0,2.88,0h.66a32.17,32.17,0,0,1,4,0c-.93.11-2.26.18-3.19.28,2,.12,4.1-.39,6.28-.51-.09.18-2.28.18-1.62.36,1.56,0,2.88-.25,4.32-.37l-.2.11c1.94,0,2.31-.12,2.55-.24s.36-.22,1.78-.1c-.09-.06.27-.13.09-.18,1,.06,3.51.17,1.08.36A35.09,35.09,0,0,0,75,39.53a7.83,7.83,0,0,1-1.86-.23c1.81-.08,3.62-.13,5.44-.13.6,0-.46.09-1.22.08,1.6.15,3.2.23,4.82.33l1.22.09c.42,0,.83.1,1.24.17.82.14,1.64.32,2.45.52a24.43,24.43,0,0,1,2.44.75,14.52,14.52,0,0,1,2.39,1.08,7.83,7.83,0,0,1,1.14.8c.09.08.17.17.26.26s.17.18.25.28l.11.16a1.19,1.19,0,0,1,.09.15l.18.31a6.25,6.25,0,0,1,.75,2.7c0-.43.07-.31.15,0,.05.17.06.39.1.61s0,.44.08.62a12.6,12.6,0,0,1-.26,2,13.45,13.45,0,0,1-.61,2.12,20,20,0,0,1-1.74,3.61c.08-.22.16-.44.23-.66-.31.62-.63,1.21-1,1.78l-.46.82-.11.19,0,.1L91,58.2c-.12.18-.21.27-.3.39l-2,2.65c-1.3,1.66-2.47,3.11-3.66,4.49-.08.17-.1-.12.29-.65-1.56,2.21-4.12,4.28-4.26,5.12l.66-.74c-3.46,4.05-7,8.78-10.38,13.11-1,.84,2-2.49,1-1.8-2.47,2.91-4.7,6.08-7.23,9.36.37-.56.26-.46.44-.73-1.3,1.62-1.17,1.56-1,1.45s.42-.28-.61,1.12c0-.22-.12-.11-.84.8l-.42,1c-.11.11-.22,0-.05-.34-.36.73-1.17,2-1.93,3.15A21.36,21.36,0,0,0,59,99.64c-.21.24,0-.63-.3-.26a20.58,20.58,0,0,0-2,3.86h0c-.19.27-.4.66-.63,1.07s-.44.86-.61,1.26l-.24.54-.17.4c-.09.21-.12.27-.06.11-.17.38-.28.68-.37.91a4.91,4.91,0,0,0-.17.51c-.07.24-.06.28,0,.31s.15,0-.13,1.23c.28-.82.59-1.64.93-2.44A28.77,28.77,0,0,0,54,111.55c0-.3.09-.6.14-.9s.11-.6.17-.9a13.63,13.63,0,0,0-.64,3.16,22,22,0,0,0,0,3.45l0-.56c0-.18,0-.36.07-.55a14.22,14.22,0,0,0,.32,2.69,1.28,1.28,0,0,0,0,.65,8.79,8.79,0,0,0,.22,1c0,.16.08.31.11.42a1,1,0,0,1,.06.26c0,.1-.08,0-.28-.28,0,.15.1.3.15.45s.1.3.16.44.22.57.36.83l.19.4.09.15.11.13a2,2,0,0,0,.59.44,4.06,4.06,0,0,0,.71.29c.24.08.5.13.75.19a13.19,13.19,0,0,0,1.54.17,25.13,25.13,0,0,0,3.12-.07c1-.07,2-.18,3.14-.31-.56.07-.31.1-.45.16a26.69,26.69,0,0,0,3.45-.5c1-.2,1.77-.43,2.58-.67-.32.16-1,.31-1,.39a16.73,16.73,0,0,0,2.63-.63l1-.3,1.88-.54c-1,.37-.63.36.35.14-.18-.07.61-.36,1.25-.57-1.25.65-.24.45.88.18s2.28-.62,1.65-.19c.28-.15,1.5-.63,2.52-1.1s1.87-.92,1.4-.86c1.18-.5,2.37-1,3.55-1.59l.45-.22.46-.21.93-.43,1.87-.85c2.52-1.12,5.12-2.24,7.76-3.51-.44.27-2.55,1.33-1.15.76,2.67-1.14,4.73-2.15,6.77-3.22s4-2.19,6.57-3.64c.1,0-.19.27-.69.57-.25.15-.55.32-.89.5l-1,.55-1.08.56c-.35.18-.68.35-1,.51-.56.31-.95.55-1,.66a124.1,124.1,0,0,0,16.55-9.91,8.76,8.76,0,0,0,.9-.41c.31-.18.63-.38,1-.61.66-.45,1.38-1,2.12-1.57,1.5-1.17,3.14-2.51,4.93-3.66-.21.05.08-.26.65-.77.29-.26.64-.56,1-.89s.81-.7,1.25-1.07c-.51.62,1.36-.93.91-.42.37-.35.9-.87,1.5-1.43l1-.86L137,87l.47-.43c1.25-1.13,2.33-2,2.37-1.81a8.25,8.25,0,0,1,1.75-1.89l.69-.63.65-.65a10.86,10.86,0,0,0,1-1.17c1-.84,1.89-1.85,2.88-2.9l.75-.8.76-.84c.52-.56,1-1.12,1.62-1.69-.24.17-.22.1-.06-.11s.48-.55.83-1c.57-.65,1.26-1.43,1.7-2-.16.21-.3.39-.22.33a11.64,11.64,0,0,0,1.6-1.82l.59-.76A77.45,77.45,0,0,0,77.44,0q-3,0-6,.23A5.94,5.94,0,0,1,72,.82a3.74,3.74,0,0,1,.22.32l.13.26a1.36,1.36,0,0,1,.06.2,0,0,0,0,1,0,0h0a1.55,1.55,0,0,1,.23.65,2.53,2.53,0,0,1,0,.55,6,6,0,0,1-.16,1,6.84,6.84,0,0,0-.08-.91,2.66,2.66,0,0,0,0-.8l0-.17s0-.08,0-.11a.39.39,0,0,1-.2,0l-.23-.08-.11,0a2.15,2.15,0,0,1,.18.23c.73,1.15-1.75,5.82-2.88,7-2.53,2.56-6.52,5.89-10.83,9.43l-.59.83c1.13-.91,2.44-2.15,3.64-3.24a15.13,15.13,0,0,1,3-2.35l-1.06,1a6.25,6.25,0,0,0,2.32-1.78c.34-.35.52-.68.27-.52l.86-.69a15.17,15.17,0,0,1-1.89,2c-.93.87-2,1.84-2.89,2.6.49-.53,1.79-1.72,1.29-1.48-1.5,1.36-2.9,2.7-4.36,4a12.52,12.52,0,0,0,1.08-1.3,23.52,23.52,0,0,0-2.44,2.22c-.54.33-.91.56-.63.24-1.54,1.38-2.81,2.43-4.57,3.74,0,0,1.49-1.4.91-1.08l-.93.77c-1.1,1-1.83,1.7-2.57,2.43-.89.88-1.81,1.78-3.39,3.25-1.76,1.79-3.59,3.38-5.17,4.93A20.17,20.17,0,0,0,39,36.16a6.42,6.42,0,0,0-.71,1.17,1.5,1.5,0,0,0-.16,1S38.19,38.27,38.21,38.16Z"/><path class="cls-1" d="M148.76,95.92c-1.72,2.49-3.54,4.92-5.45,7.26a139.42,139.42,0,0,1-12.15,13.08c-.58.63.43-.26.61-.28a8.52,8.52,0,0,1-1,.72,6.78,6.78,0,0,0-1.08,1l.32-.1c-.52.42-1.11.87-1.72,1.38s-1.26,1-1.93,1.59-1.38,1.13-2.1,1.71l-.53.44-.55.42-1.09.85c-1.45,1.12-2.9,2.17-4.22,3-.66.44-1.29.82-1.86,1.15a16.74,16.74,0,0,1-1.56.8c-1,.72-2,1.38-3,2l-1.47.86-1.5.82c-1,.57-2,1.11-3.18,1.73l-.42.23-.44.24-.9.49c-.61.33-1.24.7-1.93,1.06-1.81.73,1.93-1.2-.45-.09-.85.44-1.68.9-2.54,1.31l-1.28.64-.64.32-.59.28a61.62,61.62,0,0,1-9.3,3.58l-1.38.42c-.46.14-.91.29-1.38.42-.93.26-1.85.53-2.77.81s-1.82.51-2.7.78-1.75.5-2.57.77l.28-.1c.06-.07-.26,0-.73.05s-1.09.2-1.63.35c-.36.16.38,0,1-.06l-2,.56-1.71.41-.75.18-.71.15-1.31.27c-.42.09-.84.16-1.26.23l-1.3.22-1.44.21-.8.11-.88.1c1-.19.55-.17-.23-.13a7.83,7.83,0,0,1-2,0c-.64.12-.45.15-.46.21s-.06,0-.29.09-.64.09-1.36.16c-2,.1-4,.06-5.86,0l-2.73-.14c-.89-.05-1.75-.12-2.6-.2a10.9,10.9,0,0,1-1.28,0A77.47,77.47,0,0,0,154.32,86.81c-.18.39-.42.86-.75,1.46Q151.34,92.17,148.76,95.92Z"/><path class="cls-1" d="M48,81.55c2.19-1.75,4.77-4,7.54-6.35s5.71-4.84,8.57-7.11l-.44.41c2.57-1.8,2.54-2.52,5.23-4.56l-.62.59c1.77-1.26,4.11-3.11,6.4-5l.85-.7.21-.17,0,0,0,0,.07-.07a3.27,3.27,0,0,0,.3-.35,3,3,0,0,0,.69-1.49,1.53,1.53,0,0,0,0-.62,1.63,1.63,0,0,0-.29-.49,2.74,2.74,0,0,0-1-.65l.19.06.11,0s0,0,0-.08a1.86,1.86,0,0,0-.94-.43c-.23,0-.3,0-.29,0s.08.08.12.12,0,.07-.06.06-.33-.06-.76-.07c.21,0,.24-.06.15-.09a.93.93,0,0,0-.46,0,1.5,1.5,0,0,0-.36.15l0,0h-.07a1.15,1.15,0,0,1-.23.1l-.05,0h0l-.07,0-.14,0-1.1.38c-3,.6-6.21,1.06-9.48,1.47s-6.56.76-9.65,1.09c-1.16,0-.32-.14-.06-.25-4.9.47-9.79.88-14.25.92l-.45-.28a7.8,7.8,0,0,0-1.85.16,5.35,5.35,0,0,1-.8.05,15.37,15.37,0,0,1-1.54-.13c-.32,0,.15,0,.8,0a17.14,17.14,0,0,0,1.86-.05,19.35,19.35,0,0,0-3.46-.06,15.23,15.23,0,0,1-3.33,0L30.41,58c-.8-.11-1.43-.17-1.94-.21s-.9-.05-1.24,0c-.67,0-1.08.1-1.68.12a14.18,14.18,0,0,1-2.5-.31c-.3-.07-.56-.15-.81-.23l-.71-.25-.78-.29-1-.33c-.79-.24-1.83-.52-3.32-1-1-.21.23.33-.76.11-.26-.1-.5-.21-.73-.31l-.65-.3-.59-.29-.53-.28-.24-.13-.24-.14-.45-.27-.42-.27-.4-.28a7.79,7.79,0,0,1-.79-.63c-.13-.12-.28-.23-.41-.37l-.4-.42A7.72,7.72,0,0,1,9,50.83a5.8,5.8,0,0,1-.39-.7l-.1-.19c0-.06,0-.13-.08-.2l-.17-.43a2.08,2.08,0,0,1,0-.23l0-.19c0-.11,0-.19,0-.25s0-.15,0-.12a3.65,3.65,0,0,1,.22.63,2.59,2.59,0,0,0,.25.57s0,0,0-.17,0-.16,0-.28l0-.19,0-.24A7.54,7.54,0,0,0,10.31,52c-.12-.15-.22-.27-.29-.37l-.16-.25c-.06-.12-.07-.15,0-.11a2,2,0,0,1,.25.28l.47.48a3.58,3.58,0,0,0,.28.26l.29.26c.2.17.41.31.58.43a1.76,1.76,0,0,0,.42.24c.09,0,.14,0,.11,0l-.34-.25-.34-.28c-.25-.19-.48-.41-.73-.63a9.84,9.84,0,0,1-1.39-1.64c-.11-.16-.2-.33-.3-.5a4.16,4.16,0,0,1-.25-.52l-.13-.27-.09-.27-.1-.28c0-.1-.06-.19-.08-.28-.09-.36-.19-.72-.27-1.07s-.15-.72-.21-1.07c0,0,.05,0,.08.13a3.46,3.46,0,0,1,.09.35c0,.14.06.3.1.47l0,.25.06.24c.15.64.28,1.12.28.45l-.19-.69c-.06-.23-.11-.47-.16-.7a6,6,0,0,1,.37,1.25,1.76,1.76,0,0,0,0-.5c0-.2-.07-.44-.13-.7l-.08-.4c0-.14,0-.29-.08-.44a9.31,9.31,0,0,1-.13-1c-.11-.08-.26,0-.37.47a1.57,1.57,0,0,0,0-.38,11.09,11.09,0,0,1-.15-1.27,77.5,77.5,0,0,0,13.67,87.27l-.07-.25-.27-1a24.81,24.81,0,0,1-.53-8.13l.13.57a23.39,23.39,0,0,1,.69-4.6,19.69,19.69,0,0,1,1.2-3.55c0-.09.14-.77-.08-.37.13-.41.23-.71.31-1s.16-.39.21-.51a.76.76,0,0,1,.22-.31c.06,0,.11-.1.24-.36s.14-.3.25-.56l.12-.3c-.08.2-.16.4-.23.59a3,3,0,0,0-.23.79c.43-1.06.88-2.11,1.39-3.14.24-.52.51-1,.77-1.53l.41-.75.42-.75a2.58,2.58,0,0,0,.49-.57l.47-.62c.18-.24.37-.51.59-.79.84-1.13,1.89-2.52,2.72-3.69,0-.13-.57.46-1,1.05.34-.51.7-1,1.05-1.51.37-.32.74-.62,1.11-.93.49-.75,1-1.49,1.49-2.22l.22.12c.3-.38.55-.71.77-1s.39-.58.57-.85a12.22,12.22,0,0,1,1.24-1.6c1-1.07,1.76-1.79,2.33-2.33s1-.91,1.33-1.23c.72-.63,1.3-1.11,2.88-2.5,0-.33,1.2-1.49,2.48-2.67A26.57,26.57,0,0,0,48,81.55Z"/></g></g></svg>