<svg xmlns="http://www.w3.org/2000/svg" width="338.44" height="94.36" viewBox="0 0 338.44 94.36"><path d="M25.37,36H2.17a1.87,1.87,0,0,1-1.38-.43,1.89,1.89,0,0,1-.42-1.37V1.84A1.93,1.93,0,0,1,.79.46,1.91,1.91,0,0,1,2.17,0h23.2a1.89,1.89,0,0,1,1.37.42,1.89,1.89,0,0,1,.43,1.38V7.69a1.85,1.85,0,0,1-.43,1.37,1.85,1.85,0,0,1-1.37.43H11.57v3.85h9.75a1.89,1.89,0,0,1,1.37.42,1.89,1.89,0,0,1,.43,1.38v5.35a1.85,1.85,0,0,1-.43,1.37,1.85,1.85,0,0,1-1.37.43H11.57v4.3h13.8a1.54,1.54,0,0,1,1.8,1.8v5.85a1.55,1.55,0,0,1-1.8,1.8Zm-2.7-5H6.32V18.09h12.3v-.5H6.32V5H22.67v-.5H5.82v27H22.67Z" fill="#3a4154"/><path d="M47.32,36H39.87a1.53,1.53,0,0,1-1.8-1.8V1.8A1.93,1.93,0,0,1,38.49.42,1.91,1.91,0,0,1,39.87,0h8.05a2.36,2.36,0,0,1,1.32.35,3.28,3.28,0,0,1,1,1.15l4.5,8.15a3.87,3.87,0,0,0,.42.65.63.63,0,0,0,.48.2h.45a.59.59,0,0,0,.47-.2A3.79,3.79,0,0,0,57,9.65L61.42,1.5a3.27,3.27,0,0,1,1-1.15A2.37,2.37,0,0,1,63.72,0h8.1a1.89,1.89,0,0,1,1.37.42,1.89,1.89,0,0,1,.43,1.38V34.2a1.54,1.54,0,0,1-1.8,1.8h-7.7a1.53,1.53,0,0,1-1.8-1.8V16.6l-3,5.45a2.71,2.71,0,0,1-2.65,1.6h-2a2.68,2.68,0,0,1-2.65-1.6l-3-5.45V34.2a1.54,1.54,0,0,1-1.8,1.8Zm8.35-19.25a1.76,1.76,0,0,1-1.3-.4,11.55,11.55,0,0,1-1.25-1.7L47,5.35a1.68,1.68,0,0,0-.7-.68,2.13,2.13,0,0,0-.8-.17h-.85a1.2,1.2,0,0,0-1,.38,1.78,1.78,0,0,0-.32,1.17V31.5h.5V6.05A1.66,1.66,0,0,1,44,5.33.63.63,0,0,1,44.67,5h.75a1.72,1.72,0,0,1,.62.1,1.33,1.33,0,0,1,.58.6l6.1,9.2a16,16,0,0,0,1.37,1.85,2.12,2.12,0,0,0,1.58.5,2.1,2.1,0,0,0,1.57-.5,14.65,14.65,0,0,0,1.38-1.85l6.1-9.2a1.41,1.41,0,0,1,.55-.6,1.51,1.51,0,0,1,.6-.1h.75a.68.68,0,0,1,.67.33,1.43,1.43,0,0,1,.18.72V31.5H68V6.05a1.72,1.72,0,0,0-.33-1.17,1.24,1.24,0,0,0-1-.38h-.85a1.92,1.92,0,0,0-.78.17,1.68,1.68,0,0,0-.67.68l-6.1,9.3A13.28,13.28,0,0,1,57,16.35,1.78,1.78,0,0,1,55.67,16.75Z" fill="#3a4154"/><path d="M94.77,36H87.32a1.9,1.9,0,0,1-1.38-.42,1.93,1.93,0,0,1-.42-1.38V1.8A1.93,1.93,0,0,1,85.94.42,1.9,1.9,0,0,1,87.32,0h8.05a2.36,2.36,0,0,1,1.32.35,3.28,3.28,0,0,1,1,1.15l4.5,8.15a3.87,3.87,0,0,0,.42.65.63.63,0,0,0,.48.2h.45a.6.6,0,0,0,.47-.2,3.79,3.79,0,0,0,.43-.65l4.45-8.15a3.27,3.27,0,0,1,1-1.15A2.37,2.37,0,0,1,111.17,0h8.1a1.89,1.89,0,0,1,1.37.42,1.93,1.93,0,0,1,.43,1.38V34.2a1.93,1.93,0,0,1-.43,1.38,1.89,1.89,0,0,1-1.37.42h-7.7a1.53,1.53,0,0,1-1.8-1.8V16.6l-3,5.45a3,3,0,0,1-1.08,1.22,3,3,0,0,1-1.57.38h-2a3,3,0,0,1-1.58-.38,3,3,0,0,1-1.07-1.22l-3-5.45V34.2a1.93,1.93,0,0,1-.43,1.38A1.89,1.89,0,0,1,94.77,36Zm8.35-19.25a1.76,1.76,0,0,1-1.3-.4,11.55,11.55,0,0,1-1.25-1.7l-6.1-9.3a1.68,1.68,0,0,0-.7-.68A2.13,2.13,0,0,0,93,4.5h-.85a1.2,1.2,0,0,0-1,.38,1.72,1.72,0,0,0-.32,1.17V31.5h.5V6.05a1.66,1.66,0,0,1,.15-.72A.63.63,0,0,1,92.12,5h.75a1.72,1.72,0,0,1,.62.1,1.38,1.38,0,0,1,.58.6l6.1,9.2a16,16,0,0,0,1.37,1.85,2.73,2.73,0,0,0,3.15,0,14.65,14.65,0,0,0,1.38-1.85l6.1-9.2a1.41,1.41,0,0,1,.55-.6,1.51,1.51,0,0,1,.6-.1h.75a.69.69,0,0,1,.67.33,1.43,1.43,0,0,1,.18.72V31.5h.5V6.05a1.72,1.72,0,0,0-.33-1.17,1.26,1.26,0,0,0-1-.38h-.85a1.92,1.92,0,0,0-.78.17,1.68,1.68,0,0,0-.67.68l-6.1,9.3a13.28,13.28,0,0,1-1.25,1.7A1.78,1.78,0,0,1,103.12,16.75Z" fill="#3a4154"/><path d="M143.17,34.2a1.93,1.93,0,0,1-.43,1.38,1.89,1.89,0,0,1-1.37.42H134a1.53,1.53,0,0,1-1.8-1.8V21a14.59,14.59,0,0,1,.47-3.45A38,38,0,0,1,134.17,13l4.35-11.35A2.32,2.32,0,0,1,139.44.4a3,3,0,0,1,1.63-.4h13.45a2.82,2.82,0,0,1,1.57.4A2.34,2.34,0,0,1,157,1.65L161.37,13a39.61,39.61,0,0,1,1.47,4.55,14.65,14.65,0,0,1,.48,3.45V34.2a1.54,1.54,0,0,1-1.8,1.8H154a2.2,2.2,0,0,1-1.48-.42A1.81,1.81,0,0,1,152,34.2v-7h-8.85Zm14.35-2.7h.5V20.85a13.83,13.83,0,0,0-.23-2.58,15.5,15.5,0,0,0-.62-2.27l-3.45-8.15a12.05,12.05,0,0,0-1.28-2.4,2.66,2.66,0,0,0-2.32-1h-4.9a2.78,2.78,0,0,0-2.4,1,9.93,9.93,0,0,0-1.25,2.35l-3.2,8.2a14.36,14.36,0,0,0-.63,2.27,13.86,13.86,0,0,0-.22,2.58V31.5h.5V22.9h19.5ZM138,20.85a13.07,13.07,0,0,1,.22-2.5,14.65,14.65,0,0,1,.58-2.15L142,8a10.72,10.72,0,0,1,1.1-2.12,2.35,2.35,0,0,1,2.1-.88h4.9a2.24,2.24,0,0,1,2,.88,12.35,12.35,0,0,1,1.15,2.17l3.45,8.15a16,16,0,0,1,.57,2.15,13,13,0,0,1,.23,2.5V22.4H138Zm8-10.35-2.35,7.6h7.85l-2.35-7.6a2,2,0,0,0-.43-.65.77.77,0,0,0-.52-.2H147a.79.79,0,0,0-.53.2A1.82,1.82,0,0,0,146,10.5Z" fill="#3a4154"/><path d="M200,36h-7.75a1.9,1.9,0,0,1-1.38-.42,1.93,1.93,0,0,1-.42-1.38V1.8a1.93,1.93,0,0,1,.42-1.38A1.9,1.9,0,0,1,192.27,0H200a1.89,1.89,0,0,1,1.37.42,1.93,1.93,0,0,1,.43,1.38V13.3h2L209,1.65a2.43,2.43,0,0,1,.95-1.27A2.78,2.78,0,0,1,211.47,0h7.7a1.34,1.34,0,0,1,1.15.42,1.26,1.26,0,0,1,0,1.23l-5.1,11.65a6.29,6.29,0,0,1,4.47,2,6.86,6.86,0,0,1,1.68,4.83V34.2a1.93,1.93,0,0,1-.43,1.38,1.89,1.89,0,0,1-1.37.42h-7.7a1.9,1.9,0,0,1-1.38-.42A1.93,1.93,0,0,1,210,34.2V24.45a1.86,1.86,0,0,0-.4-1.25,1.53,1.53,0,0,0-1.2-.45h-6.6V34.2a1.93,1.93,0,0,1-.43,1.38A1.89,1.89,0,0,1,200,36Zm-3.6-4.5V18.3h13.45a7.12,7.12,0,0,1,4.15,1,3.9,3.9,0,0,1,1.4,3.4v8.8h.5V22.7a4.44,4.44,0,0,0-1.5-3.75,7.42,7.42,0,0,0-4.55-1.15h-2.05l5.75-13.3H213l-5.75,13.3H196.42V4.5h-.5v27Z" fill="#3a4154"/><path d="M243,34.2a1.93,1.93,0,0,1-.43,1.38,1.89,1.89,0,0,1-1.37.42h-7.35a1.9,1.9,0,0,1-1.38-.42A1.93,1.93,0,0,1,232,34.2V21a14.59,14.59,0,0,1,.47-3.45A38,38,0,0,1,234,13l4.35-11.35A2.32,2.32,0,0,1,239.24.4a3,3,0,0,1,1.63-.4h13.45a2.84,2.84,0,0,1,1.57.4,2.34,2.34,0,0,1,.93,1.25L261.17,13a39.61,39.61,0,0,1,1.47,4.55,14.65,14.65,0,0,1,.48,3.45V34.2a1.93,1.93,0,0,1-.43,1.38,1.89,1.89,0,0,1-1.37.42h-7.55a2.2,2.2,0,0,1-1.48-.42,1.77,1.77,0,0,1-.47-1.38v-7H243Zm14.35-2.7h.5V20.85a13.83,13.83,0,0,0-.23-2.58A15.5,15.5,0,0,0,257,16l-3.45-8.15a12.05,12.05,0,0,0-1.28-2.4,2.66,2.66,0,0,0-2.32-1H245a2.78,2.78,0,0,0-2.4,1,9.93,9.93,0,0,0-1.25,2.35l-3.2,8.2a14.36,14.36,0,0,0-.63,2.27,13.86,13.86,0,0,0-.22,2.58V31.5h.5V22.9h19.5Zm-19.5-10.65a13.07,13.07,0,0,1,.22-2.5,14.65,14.65,0,0,1,.58-2.15l3.2-8.2a10.72,10.72,0,0,1,1.1-2.12A2.35,2.35,0,0,1,245,5h4.9a2.24,2.24,0,0,1,2,.88,12.35,12.35,0,0,1,1.15,2.17l3.45,8.15a16,16,0,0,1,.57,2.15,13,13,0,0,1,.23,2.5V22.4h-19.5Zm8-10.35-2.35,7.6h7.85L249,10.5a2,2,0,0,0-.43-.65.77.77,0,0,0-.52-.2h-1.25a.79.79,0,0,0-.53.2A1.82,1.82,0,0,0,245.82,10.5Z" fill="#3a4154"/><path d="M289.27,36h-8.1a1.86,1.86,0,0,1-1.38-.43,1.89,1.89,0,0,1-.42-1.37V9.69H272a1.86,1.86,0,0,1-1.38-.43,1.89,1.89,0,0,1-.42-1.37v-6a1.93,1.93,0,0,1,.42-1.38A1.9,1.9,0,0,1,272,0h26.4a1.89,1.89,0,0,1,1.37.42,1.93,1.93,0,0,1,.43,1.38V7.89a1.89,1.89,0,0,1-.43,1.37,1.85,1.85,0,0,1-1.37.43h-7.35V34.24a1.89,1.89,0,0,1-.43,1.37A1.85,1.85,0,0,1,289.27,36Zm-4.3-4.5h.5V5h10.25v-.5h-21V5H285Z" fill="#3a4154"/><path d="M335.07,36h-23.2a1.9,1.9,0,0,1-1.38-.42,1.93,1.93,0,0,1-.42-1.38V1.8a1.93,1.93,0,0,1,.42-1.38A1.9,1.9,0,0,1,311.87,0h23.2a1.89,1.89,0,0,1,1.37.42,1.93,1.93,0,0,1,.43,1.38V7.65A1.89,1.89,0,0,1,336.44,9a1.85,1.85,0,0,1-1.37.43h-13.8V13.3H331a1.85,1.85,0,0,1,1.37.43,1.89,1.89,0,0,1,.43,1.37v5.35a1.93,1.93,0,0,1-.43,1.38,1.89,1.89,0,0,1-1.37.42h-9.75v4.3h13.8a1.85,1.85,0,0,1,1.37.43,1.89,1.89,0,0,1,.43,1.37V34.2a1.93,1.93,0,0,1-.43,1.38A1.89,1.89,0,0,1,335.07,36Zm-2.7-5H316V18.05h12.3v-.5H316V5h16.35V4.5H315.52v27h16.85Z" fill="#3a4154"/><path d="M9.17,93.6H1.73a1.81,1.81,0,0,1-1.32-.41A1.81,1.81,0,0,1,0,91.87V60.77a1.81,1.81,0,0,1,.41-1.32A1.81,1.81,0,0,1,1.73,59H16.42q6.52,0,8.92,2.59a9.58,9.58,0,0,1,2.4,6.77v6.14a9.56,9.56,0,0,1-2.4,6.77q-2.4,2.59-8.92,2.59H10.9v8a1.81,1.81,0,0,1-.41,1.32A1.81,1.81,0,0,1,9.17,93.6Zm6.57-13.78a11.73,11.73,0,0,0,3.68-.48A5.11,5.11,0,0,0,21.6,78a4.64,4.64,0,0,0,1.06-2,10.94,10.94,0,0,0,.28-2.57V69.89a11.18,11.18,0,0,0-.28-2.59,4.86,4.86,0,0,0-1.06-2.07,5.27,5.27,0,0,0-2.18-1.37,11.38,11.38,0,0,0-3.68-.5H5.38V89.28h.48V79.82Zm-9.88-.48V63.84h9.88a10.59,10.59,0,0,1,3.44.46,4.6,4.6,0,0,1,2,1.27,4.39,4.39,0,0,1,1,1.92,10,10,0,0,1,.26,2.4v3.55a9.86,9.86,0,0,1-.26,2.38,4.26,4.26,0,0,1-1,1.87,4.63,4.63,0,0,1-2,1.22,11.27,11.27,0,0,1-3.44.43ZM10.8,68v7.24h4.32c.93,0,1.54-.24,1.82-.72a3.08,3.08,0,0,0,.44-1.63V70.37a3.08,3.08,0,0,0-.44-1.63c-.28-.48-.89-.72-1.82-.72Z" fill="#3a4154"/><path d="M46.85,91.91a1.48,1.48,0,0,1-1.73,1.73H38.06a1.85,1.85,0,0,1-1.32-.41,1.81,1.81,0,0,1-.4-1.32V79.24a14.38,14.38,0,0,1,.45-3.31,37.4,37.4,0,0,1,1.42-4.37l4.17-10.9a2.33,2.33,0,0,1,.89-1.2,2.91,2.91,0,0,1,1.56-.38H57.74a2.83,2.83,0,0,1,1.52.38,2.26,2.26,0,0,1,.88,1.2l4.18,10.9a37.4,37.4,0,0,1,1.42,4.37,14.38,14.38,0,0,1,.45,3.31V91.91a1.77,1.77,0,0,1-.41,1.32,1.81,1.81,0,0,1-1.32.41H57.22a2.09,2.09,0,0,1-1.42-.41,1.7,1.7,0,0,1-.46-1.32V85.19H46.85Zm13.77-2.59h.48V79.1a13.65,13.65,0,0,0-.21-2.48,15.56,15.56,0,0,0-.6-2.18L57,66.62a12.26,12.26,0,0,0-1.23-2.31,2.53,2.53,0,0,0-2.23-.91h-4.7a2.68,2.68,0,0,0-2.31.91,9.74,9.74,0,0,0-1.2,2.26l-3.07,7.87a13.24,13.24,0,0,0-.6,2.18,13.62,13.62,0,0,0-.22,2.48V89.32h.48V81.06H60.62ZM41.9,79.1a12.73,12.73,0,0,1,.22-2.4,14.86,14.86,0,0,1,.55-2.07l3.07-7.87a10.74,10.74,0,0,1,1.06-2,2.27,2.27,0,0,1,2-.84h4.7a2.15,2.15,0,0,1,1.92.84,12.18,12.18,0,0,1,1.1,2.09l3.32,7.82a16.39,16.39,0,0,1,.55,2.07,12.76,12.76,0,0,1,.21,2.4v1.48H41.9Zm7.68-9.94-2.25,7.29h7.53l-2.25-7.29a2,2,0,0,0-.41-.63.76.76,0,0,0-.5-.19H50.5a.78.78,0,0,0-.51.19A2,2,0,0,0,49.58,69.16Z" fill="#3a4154"/><path d="M86,93.64H78.6a1.48,1.48,0,0,1-1.73-1.73V60.81a1.48,1.48,0,0,1,1.73-1.73h16q5.39,0,7.42,2.23a8.25,8.25,0,0,1,2,5.79v2.2a8.83,8.83,0,0,1-.6,3.44,3.77,3.77,0,0,1-2.09,2,6.28,6.28,0,0,1,4.2,2.11,7.06,7.06,0,0,1,1.61,4.85V91.91a1.48,1.48,0,0,1-1.73,1.73H98a1.48,1.48,0,0,1-1.73-1.73V84.57a2.45,2.45,0,0,0-.4-1.56,1.74,1.74,0,0,0-1.42-.51H87.72v9.41A1.48,1.48,0,0,1,86,93.64Zm-3.45-4.32V78.18H96.12a5.83,5.83,0,0,1,4,1.18,4.5,4.5,0,0,1,1.3,3.53v6.43h.48V82.89a4.92,4.92,0,0,0-1.44-3.82,6.29,6.29,0,0,0-4.37-1.32h-.53a3.39,3.39,0,0,0,2.31-1.94,9.83,9.83,0,0,0,.57-3.63V68.87A5.8,5.8,0,0,0,97.13,65,5.16,5.16,0,0,0,93,63.4H82.06V89.32ZM93,63.88a4.76,4.76,0,0,1,3.77,1.39A5.29,5.29,0,0,1,98,68.87v3.36a7,7,0,0,1-1,4.08c-.67,1-2,1.44-4,1.44H82.54V63.88Zm-5.28,3.84v6.14h3.6A1.89,1.89,0,0,0,93,73.22a2.84,2.84,0,0,0,.43-1.61V70a2.81,2.81,0,0,0-.43-1.6,1.87,1.87,0,0,0-1.68-.65Z" fill="#3a4154"/><path d="M126.53,93.6h-7.44a1.81,1.81,0,0,1-1.32-.41,1.77,1.77,0,0,1-.41-1.32V60.77a1.77,1.77,0,0,1,.41-1.32,1.81,1.81,0,0,1,1.32-.41h7.44a1.48,1.48,0,0,1,1.73,1.73v11h1.92l4.94-11.19A2.42,2.42,0,0,1,136,59.4a2.79,2.79,0,0,1,1.49-.36h7.39a1.29,1.29,0,0,1,1.11.41,1.19,1.19,0,0,1-.05,1.17l-4.9,11.19a6,6,0,0,1,4.3,1.89A6.62,6.62,0,0,1,147,78.34V91.87a1.48,1.48,0,0,1-1.73,1.73h-7.4a1.8,1.8,0,0,1-1.31-.41,1.77,1.77,0,0,1-.41-1.32V82.51a1.73,1.73,0,0,0-.39-1.2,1.44,1.44,0,0,0-1.15-.43h-6.33v11a1.48,1.48,0,0,1-1.73,1.73Zm-3.46-4.32V76.61H136a6.87,6.87,0,0,1,4,1,3.75,3.75,0,0,1,1.34,3.26v8.45h.48V80.83a4.26,4.26,0,0,0-1.44-3.6,7.17,7.17,0,0,0-4.37-1.1h-2l5.52-12.77H139l-5.52,12.77H123.07V63.36h-.48V89.28Z" fill="#3a4154"/><path d="M158.93,93.64a1.81,1.81,0,0,1-1.32-.41,1.77,1.77,0,0,1-.41-1.32V86.2a1.77,1.77,0,0,1,.41-1.32,1.81,1.81,0,0,1,1.32-.41h4.75V68.34h-4.75a1.48,1.48,0,0,1-1.73-1.72V60.81a1.77,1.77,0,0,1,.41-1.32,1.81,1.81,0,0,1,1.32-.41h20.44a1.81,1.81,0,0,1,1.32.41,1.77,1.77,0,0,1,.41,1.32v5.81a1.48,1.48,0,0,1-1.73,1.72h-4.65V84.47h4.65a1.81,1.81,0,0,1,1.32.41,1.77,1.77,0,0,1,.41,1.32v5.71a1.77,1.77,0,0,1-.41,1.32,1.81,1.81,0,0,1-1.32.41Zm17.85-4.32v-.48h-7.34v-25h7.34V63.4H161.52v.48H169v25h-7.44v.48Z" fill="#3a4154"/><path d="M200.73,93.64h-7.2a1.85,1.85,0,0,1-1.32-.41,1.81,1.81,0,0,1-.4-1.32V60.81a1.81,1.81,0,0,1,.4-1.32,1.85,1.85,0,0,1,1.32-.41h5a3.91,3.91,0,0,1,1.56.29,3.74,3.74,0,0,1,1.27,1L210.67,71V60.81a1.48,1.48,0,0,1,1.73-1.73h7.2a1.48,1.48,0,0,1,1.73,1.73v31.1a1.48,1.48,0,0,1-1.73,1.73h-7.2a1.48,1.48,0,0,1-1.73-1.73V86l-8.21-9.94V91.91a1.77,1.77,0,0,1-.41,1.32A1.81,1.81,0,0,1,200.73,93.64Zm-2.59-29.86a2.77,2.77,0,0,0-.38-.33.57.57,0,0,0-.34-.1.66.66,0,0,0-.38.14.52.52,0,0,0-.19.44V89.32h.48V64a.15.15,0,0,1,0-.09s0,0,.07,0a.28.28,0,0,1,.12,0l.12.09,18.15,20.35v4.95h.48V63.4h-.48V83.66Z" fill="#3a4154"/><path d="M248.78,93.6H233.61a1.47,1.47,0,0,1-1.72-1.73V86.26a1.81,1.81,0,0,1,.4-1.32,1.77,1.77,0,0,1,1.32-.41h12.91a1.12,1.12,0,0,0,.94-.41,1.55,1.55,0,0,0,.31-1,1.86,1.86,0,0,0-.31-1.2,1.29,1.29,0,0,0-.94-.44l-7.2-1a10.4,10.4,0,0,1-5.39-2.21c-1.37-1.15-2-3.07-2-5.76v-5a7.71,7.71,0,0,1,2.63-6.27,11.17,11.17,0,0,1,7.3-2.18h13.44A1.48,1.48,0,0,1,257,60.77v5.71a1.48,1.48,0,0,1-1.73,1.73H244.08a1.14,1.14,0,0,0-1,.41,1.52,1.52,0,0,0-.34,1,1.62,1.62,0,0,0,.34,1,1.25,1.25,0,0,0,1,.48l7.15,1a10.58,10.58,0,0,1,5.42,2.21q2.07,1.73,2.07,5.76v5a7.65,7.65,0,0,1-2.67,6.27A11.16,11.16,0,0,1,248.78,93.6Zm3.89-30.24H242a5.1,5.1,0,0,0-3.55,1.22,4.06,4.06,0,0,0-1.34,3.15v3.93a3.67,3.67,0,0,0,.79,2.72,4.07,4.07,0,0,0,2,1l10.13,2.06a4,4,0,0,1,2.13,1.13,4.55,4.55,0,0,1,.8,3.1v2.78a4.15,4.15,0,0,1-1.32,3.15,5,5,0,0,1-3.53,1.22h-12v.48h12a5.43,5.43,0,0,0,3.89-1.37,4.58,4.58,0,0,0,1.43-3.48V81.65a5,5,0,0,0-.93-3.46,4.5,4.5,0,0,0-2.38-1.25l-10.12-2.06a2.71,2.71,0,0,1-2.45-3.22V67.73a3.64,3.64,0,0,1,1.2-2.79,4.58,4.58,0,0,1,3.21-1.1h10.66Z" fill="#3a4154"/><path d="M298,84.57a11.78,11.78,0,0,1-.65,4,6.64,6.64,0,0,1-2.31,3.08,12.24,12.24,0,0,1-4.56,2,31.28,31.28,0,0,1-7.36.72,31.77,31.77,0,0,1-7.4-.72,12.28,12.28,0,0,1-4.58-2,6.69,6.69,0,0,1-2.3-3.08,11.54,11.54,0,0,1-.65-4V68.2a11.59,11.59,0,0,1,.65-4,6.81,6.81,0,0,1,2.3-3.09,12,12,0,0,1,4.58-2,31.77,31.77,0,0,1,7.4-.72,31.28,31.28,0,0,1,7.36.72,11.93,11.93,0,0,1,4.56,2,6.77,6.77,0,0,1,2.31,3.09,11.83,11.83,0,0,1,.65,4Zm-5.24-1.11V69.3a5.9,5.9,0,0,0-2.06-4.68q-2.07-1.8-7.68-1.8c-3.74,0-6.29.6-7.63,1.8a6,6,0,0,0-2,4.68V83.46a6,6,0,0,0,2,4.68c1.34,1.2,3.89,1.8,7.63,1.8s6.3-.6,7.68-1.8A5.9,5.9,0,0,0,292.77,83.46Zm-18.91,0V69.3A5.45,5.45,0,0,1,275.78,65Q277.7,63.3,283,63.3t7.3,1.66a5.39,5.39,0,0,1,2,4.34V83.46a5.41,5.41,0,0,1-2,4.35q-2,1.65-7.3,1.65t-7.25-1.65A5.47,5.47,0,0,1,273.86,83.46Zm5.23-.62a2.09,2.09,0,0,0,.72,1.61c.48.43,1.59.65,3.32.65s2.83-.22,3.31-.65a2.09,2.09,0,0,0,.72-1.61V69.93a2,2,0,0,0-.72-1.56c-.48-.44-1.59-.65-3.31-.65s-2.84.21-3.32.65a2,2,0,0,0-.72,1.56Z" fill="#3a4154"/><path d="M317.85,93.64h-7.2a1.48,1.48,0,0,1-1.73-1.73V60.81a1.48,1.48,0,0,1,1.73-1.73h5a3.83,3.83,0,0,1,1.55.29,3.68,3.68,0,0,1,1.28,1L327.79,71V60.81a1.77,1.77,0,0,1,.41-1.32,1.81,1.81,0,0,1,1.32-.41h7.2a1.85,1.85,0,0,1,1.32.41,1.81,1.81,0,0,1,.4,1.32v31.1a1.81,1.81,0,0,1-.4,1.32,1.85,1.85,0,0,1-1.32.41h-7.2a1.81,1.81,0,0,1-1.32-.41,1.77,1.77,0,0,1-.41-1.32V86l-8.21-9.94V91.91a1.48,1.48,0,0,1-1.73,1.73Zm-2.59-29.86a2.77,2.77,0,0,0-.38-.33.57.57,0,0,0-.34-.1.64.64,0,0,0-.38.14.53.53,0,0,0-.2.44V89.32h.48V64a.16.16,0,0,1,0-.09.08.08,0,0,1,.07,0,.28.28,0,0,1,.12,0l.12.09,18.14,20.35v4.95h.48V63.4h-.48V83.66Z" fill="#3a4154"/></svg>