<svg width="80" height="57" viewBox="0 0 80 57" fill="none" xmlns="http://www.w3.org/2000/svg">
<path d="M73.2703 51.9168L73.2715 51.9158C76.6403 49.0904 78.3098 45.2753 78.3098 40.5798C78.3098 37.2917 77.3073 34.3562 75.3054 31.8115C73.8867 29.9724 72.1379 28.6047 70.0748 27.7121C71.7748 26.8324 73.2191 25.6421 74.3941 24.1383C76.2194 21.8676 77.1018 19.0442 77.1018 15.7407C77.1018 11.2368 75.4496 7.59373 72.1259 4.9224C68.8702 2.26507 64.4154 1 58.8882 1H35.0306H34.0306V2V55V56H35.0306H59.7187C65.4004 56 69.9618 54.6829 73.2703 51.9168ZM60.575 14.5346L60.5833 14.5418L60.5917 14.5487C61.4717 15.2756 61.9651 16.3485 61.9651 17.9302C61.9651 19.5107 61.4724 20.5832 60.5937 21.3101C59.7329 22.0134 58.3851 22.4416 56.3967 22.4416H48.9409V13.3433H56.3967C58.3755 13.3433 59.7154 13.7922 60.575 14.5346ZM61.7026 35.217L61.7102 35.2236L61.7179 35.2301C62.7183 36.0704 63.2486 37.2323 63.2486 38.8433C63.2486 40.4684 62.7343 41.596 61.7983 42.377C60.8843 43.1312 59.4847 43.5812 57.4537 43.5812H48.9409V33.8789H57.3027C59.3099 33.8789 60.7322 34.3678 61.7026 35.217Z" stroke="#3A4154" stroke-width="2"/>
<path d="M48.9031 2V1H47.9031H34.9929H33.9929V2V21.7621H15.9103V2V1H14.9103H2H1V2V55V56H2H14.9103H15.9103V55V34.1809H33.9929V55V56H34.9929H47.9031H48.9031V55V2Z" stroke="#3A4154" stroke-width="2"/>
</svg>
