<svg xmlns="http://www.w3.org/2000/svg" width="345.6" height="100.53" viewBox="0 0 345.6 100.53"><path d="M32,36.54H8.84a1.89,1.89,0,0,1-1.38-.43A1.89,1.89,0,0,1,7,34.74V2.34A1.93,1.93,0,0,1,7.46,1,1.93,1.93,0,0,1,8.84.54H32A1.93,1.93,0,0,1,33.42,1a1.93,1.93,0,0,1,.42,1.38V8.19a1.89,1.89,0,0,1-.42,1.37A1.89,1.89,0,0,1,32,10H18.24v3.85H28a1.89,1.89,0,0,1,1.37.42,1.89,1.89,0,0,1,.43,1.38V21a1.85,1.85,0,0,1-.43,1.37,1.85,1.85,0,0,1-1.37.43H18.24v4.3H32a1.93,1.93,0,0,1,1.38.42,1.93,1.93,0,0,1,.42,1.38v5.85a1.54,1.54,0,0,1-1.8,1.8Zm-2.7-5H13V18.59h12.3v-.5H13V5.54H29.34V5H12.49V32H29.34Z" fill="#fff"/><path d="M54,36.5H46.54a1.53,1.53,0,0,1-1.8-1.8V2.3A1.93,1.93,0,0,1,45.16.92,1.93,1.93,0,0,1,46.54.5h8.05a2.36,2.36,0,0,1,1.32.35,3.28,3.28,0,0,1,1,1.15l4.5,8.15a4.64,4.64,0,0,0,.42.65.63.63,0,0,0,.48.2h.45a.59.59,0,0,0,.47-.2,3.79,3.79,0,0,0,.43-.65L68.09,2a3.27,3.27,0,0,1,1-1.15A2.39,2.39,0,0,1,70.39.5h8.1a1.89,1.89,0,0,1,1.37.42,1.89,1.89,0,0,1,.43,1.38V34.7a1.54,1.54,0,0,1-1.8,1.8h-7.7A1.53,1.53,0,0,1,69,34.7V17.1L66,22.55a2.71,2.71,0,0,1-2.65,1.6h-2a2.68,2.68,0,0,1-2.65-1.6l-3-5.45V34.7A1.54,1.54,0,0,1,54,36.5Zm8.35-19.25a1.78,1.78,0,0,1-1.3-.4,12.35,12.35,0,0,1-1.25-1.7l-6.1-9.3a1.62,1.62,0,0,0-.7-.68,2.09,2.09,0,0,0-.8-.17h-.85a1.21,1.21,0,0,0-1,.38A1.78,1.78,0,0,0,50,6.55V32h.5V6.55a1.66,1.66,0,0,1,.15-.72.64.64,0,0,1,.65-.33h.75a1.72,1.72,0,0,1,.62.1,1.33,1.33,0,0,1,.58.6l6.1,9.2a16,16,0,0,0,1.37,1.85,2.14,2.14,0,0,0,1.58.5,2.1,2.1,0,0,0,1.57-.5,14.65,14.65,0,0,0,1.38-1.85l6.1-9.2a1.41,1.41,0,0,1,.55-.6,1.57,1.57,0,0,1,.6-.1h.75a.68.68,0,0,1,.67.33,1.43,1.43,0,0,1,.18.72V32h.5V6.55a1.72,1.72,0,0,0-.33-1.17,1.23,1.23,0,0,0-1-.38h-.85a1.92,1.92,0,0,0-.78.17,1.68,1.68,0,0,0-.67.68l-6.1,9.3a12.35,12.35,0,0,1-1.25,1.7A1.78,1.78,0,0,1,62.34,17.25Z" fill="#fff"/><path d="M101.44,36.5H94a1.53,1.53,0,0,1-1.8-1.8V2.3A1.93,1.93,0,0,1,92.61.92,1.91,1.91,0,0,1,94,.5H102a2.36,2.36,0,0,1,1.32.35,3.28,3.28,0,0,1,1,1.15l4.5,8.15a3.87,3.87,0,0,0,.42.65.63.63,0,0,0,.48.2h.45a.59.59,0,0,0,.47-.2,3.79,3.79,0,0,0,.43-.65L115.54,2a3.27,3.27,0,0,1,1-1.15A2.39,2.39,0,0,1,117.84.5h8.1a1.89,1.89,0,0,1,1.37.42,1.89,1.89,0,0,1,.43,1.38V34.7a1.54,1.54,0,0,1-1.8,1.8h-7.7a1.53,1.53,0,0,1-1.8-1.8V17.1l-3,5.45a2.71,2.71,0,0,1-2.65,1.6h-2a2.68,2.68,0,0,1-2.65-1.6l-3-5.45V34.7a1.54,1.54,0,0,1-1.8,1.8Zm8.35-19.25a1.76,1.76,0,0,1-1.3-.4,12.35,12.35,0,0,1-1.25-1.7l-6.1-9.3a1.62,1.62,0,0,0-.7-.68,2.09,2.09,0,0,0-.8-.17h-.85a1.2,1.2,0,0,0-1,.38,1.78,1.78,0,0,0-.32,1.17V32H98V6.55a1.66,1.66,0,0,1,.15-.72.63.63,0,0,1,.65-.33h.75a1.72,1.72,0,0,1,.62.1,1.33,1.33,0,0,1,.58.6l6.1,9.2a16,16,0,0,0,1.37,1.85,2.14,2.14,0,0,0,1.58.5,2.1,2.1,0,0,0,1.57-.5,14.65,14.65,0,0,0,1.38-1.85l6.1-9.2a1.41,1.41,0,0,1,.55-.6,1.54,1.54,0,0,1,.6-.1h.75a.68.68,0,0,1,.67.33,1.43,1.43,0,0,1,.18.72V32h.5V6.55a1.72,1.72,0,0,0-.33-1.17,1.23,1.23,0,0,0-1-.38h-.85a1.92,1.92,0,0,0-.78.17,1.68,1.68,0,0,0-.67.68l-6.1,9.3a13.28,13.28,0,0,1-1.25,1.7A1.78,1.78,0,0,1,109.79,17.25Z" fill="#fff"/><path d="M149.84,34.7a1.54,1.54,0,0,1-1.8,1.8h-7.35a1.53,1.53,0,0,1-1.8-1.8V21.5a15.12,15.12,0,0,1,.47-3.45,38,38,0,0,1,1.48-4.55l4.35-11.35A2.37,2.37,0,0,1,146.11.9a3,3,0,0,1,1.63-.4h13.45a2.82,2.82,0,0,1,1.57.4,2.34,2.34,0,0,1,.93,1.25L168,13.5a36,36,0,0,1,1.47,4.55A14.65,14.65,0,0,1,170,21.5V34.7a1.54,1.54,0,0,1-1.8,1.8h-7.55a2.2,2.2,0,0,1-1.48-.42,1.81,1.81,0,0,1-.47-1.38v-7h-8.85ZM164.19,32h.5V21.35a13.83,13.83,0,0,0-.23-2.58,15.5,15.5,0,0,0-.62-2.27l-3.45-8.15A12.05,12.05,0,0,0,159.11,6a2.66,2.66,0,0,0-2.32-1h-4.9a2.81,2.81,0,0,0-2.4,1,9.93,9.93,0,0,0-1.25,2.35L145,16.5a14.36,14.36,0,0,0-.63,2.27,13.86,13.86,0,0,0-.22,2.58V32h.5V23.4h19.5Zm-19.5-10.65a13.07,13.07,0,0,1,.22-2.5,16,16,0,0,1,.58-2.15l3.2-8.2a10.72,10.72,0,0,1,1.1-2.12,2.35,2.35,0,0,1,2.1-.88h4.9a2.24,2.24,0,0,1,2,.88,12.35,12.35,0,0,1,1.15,2.17l3.45,8.15a16,16,0,0,1,.57,2.15,13,13,0,0,1,.23,2.5V22.9h-19.5Zm8-10.35-2.35,7.6h7.85L155.84,11a1.83,1.83,0,0,0-.43-.65.77.77,0,0,0-.52-.2h-1.25a.79.79,0,0,0-.53.2A1.82,1.82,0,0,0,152.69,11Z" fill="#fff"/><path d="M206.69,36.5h-7.75a1.53,1.53,0,0,1-1.8-1.8V2.3a1.93,1.93,0,0,1,.42-1.38A1.91,1.91,0,0,1,198.94.5h7.75a1.89,1.89,0,0,1,1.37.42,1.89,1.89,0,0,1,.43,1.38V13.8h2l5.15-11.65a2.43,2.43,0,0,1,1-1.27A2.78,2.78,0,0,1,218.14.5h7.7A1.34,1.34,0,0,1,227,.92a1.26,1.26,0,0,1-.05,1.23l-5.1,11.65a6.27,6.27,0,0,1,4.47,2A6.86,6.86,0,0,1,228,20.6V34.7a1.54,1.54,0,0,1-1.8,1.8h-7.7a1.53,1.53,0,0,1-1.8-1.8V25a1.86,1.86,0,0,0-.4-1.25,1.53,1.53,0,0,0-1.2-.45h-6.6V34.7a1.54,1.54,0,0,1-1.8,1.8Zm-3.6-4.5V18.8h13.45a7.12,7.12,0,0,1,4.15,1,3.9,3.9,0,0,1,1.4,3.4V32h.5V23.2a4.44,4.44,0,0,0-1.5-3.75,7.42,7.42,0,0,0-4.55-1.15h-2L220.24,5h-.55l-5.75,13.3H203.09V5h-.5V32Z" fill="#fff"/><path d="M249.64,34.7a1.54,1.54,0,0,1-1.8,1.8h-7.35a1.53,1.53,0,0,1-1.8-1.8V21.5a15.12,15.12,0,0,1,.47-3.45,38,38,0,0,1,1.48-4.55L245,2.15A2.37,2.37,0,0,1,245.91.9a3,3,0,0,1,1.63-.4H261a2.82,2.82,0,0,1,1.57.4,2.34,2.34,0,0,1,.93,1.25l4.35,11.35a37.73,37.73,0,0,1,1.47,4.55,14.65,14.65,0,0,1,.48,3.45V34.7a1.54,1.54,0,0,1-1.8,1.8h-7.55a2.2,2.2,0,0,1-1.48-.42,1.81,1.81,0,0,1-.47-1.38v-7h-8.85ZM264,32h.5V21.35a13.83,13.83,0,0,0-.23-2.58,15.5,15.5,0,0,0-.62-2.27l-3.45-8.15A12.05,12.05,0,0,0,258.91,6a2.66,2.66,0,0,0-2.32-1h-4.9a2.78,2.78,0,0,0-2.4,1A9.93,9.93,0,0,0,248,8.3l-3.2,8.2a14.36,14.36,0,0,0-.63,2.27,13.86,13.86,0,0,0-.22,2.58V32h.5V23.4H264Zm-19.5-10.65a13.07,13.07,0,0,1,.22-2.5,14.65,14.65,0,0,1,.58-2.15l3.2-8.2a10.72,10.72,0,0,1,1.1-2.12,2.35,2.35,0,0,1,2.1-.88h4.9a2.24,2.24,0,0,1,2,.88,12.35,12.35,0,0,1,1.15,2.17l3.45,8.15a16,16,0,0,1,.57,2.15,13,13,0,0,1,.23,2.5V22.9h-19.5Zm8-10.35-2.35,7.6H258L255.64,11a2,2,0,0,0-.43-.65.77.77,0,0,0-.52-.2h-1.25a.79.79,0,0,0-.53.2A1.82,1.82,0,0,0,252.49,11Z" fill="#fff"/><path d="M295.94,36.54h-8.1a1.54,1.54,0,0,1-1.8-1.8V10.19h-7.35a1.87,1.87,0,0,1-1.38-.43,1.89,1.89,0,0,1-.42-1.37V2.34A1.93,1.93,0,0,1,277.31,1a1.91,1.91,0,0,1,1.38-.42h26.4a1.89,1.89,0,0,1,1.37.42,1.89,1.89,0,0,1,.43,1.38V8.39a1.85,1.85,0,0,1-.43,1.37,1.85,1.85,0,0,1-1.37.43h-7.35V34.74a1.55,1.55,0,0,1-1.8,1.8Zm-4.3-4.5h.5V5.54h10.25V5h-21v.5h10.25Z" fill="#fff"/><path d="M341.74,36.5h-23.2a1.53,1.53,0,0,1-1.8-1.8V2.3a1.93,1.93,0,0,1,.42-1.38A1.91,1.91,0,0,1,318.54.5h23.2a1.89,1.89,0,0,1,1.37.42,1.89,1.89,0,0,1,.43,1.38V8.15a1.85,1.85,0,0,1-.43,1.37,1.85,1.85,0,0,1-1.37.43h-13.8V13.8h9.75a1.85,1.85,0,0,1,1.37.43,1.85,1.85,0,0,1,.43,1.37V21a1.89,1.89,0,0,1-.43,1.38,1.89,1.89,0,0,1-1.37.42h-9.75v4.3h13.8a1.55,1.55,0,0,1,1.8,1.8V34.7a1.54,1.54,0,0,1-1.8,1.8Zm-2.7-5H322.69V18.55H335v-.5h-12.3V5.5H339V5H322.19V32H339Z" fill="#fff"/><path d="M15.84,94.1H8.4a1.81,1.81,0,0,1-1.32-.41,1.81,1.81,0,0,1-.41-1.32V61.27A1.81,1.81,0,0,1,7.08,60a1.81,1.81,0,0,1,1.32-.41H23.09q6.53,0,8.93,2.59a9.58,9.58,0,0,1,2.4,6.77V75A9.56,9.56,0,0,1,32,81.81q-2.4,2.59-8.93,2.59H17.57v8a1.81,1.81,0,0,1-.41,1.32A1.81,1.81,0,0,1,15.84,94.1Zm6.58-13.78a11.7,11.7,0,0,0,3.67-.48,5.11,5.11,0,0,0,2.18-1.32,4.53,4.53,0,0,0,1.06-2,10.93,10.93,0,0,0,.29-2.57V70.39a11.16,11.16,0,0,0-.29-2.59,4.75,4.75,0,0,0-1.06-2.07,5.27,5.27,0,0,0-2.18-1.37,11.36,11.36,0,0,0-3.67-.5H12.05V89.78h.48V80.32Zm-9.89-.48V64.34h9.89a10.57,10.57,0,0,1,3.43.46,4.6,4.6,0,0,1,2,1.27,4.29,4.29,0,0,1,1,1.92,10,10,0,0,1,.27,2.4v3.55a9.85,9.85,0,0,1-.27,2.38,4.16,4.16,0,0,1-1,1.87,4.63,4.63,0,0,1-2,1.22,11.25,11.25,0,0,1-3.43.43Zm4.94-11.32v7.24h4.32A2,2,0,0,0,23.62,75a3.17,3.17,0,0,0,.43-1.63V70.87a3.17,3.17,0,0,0-.43-1.63,2,2,0,0,0-1.83-.72Z" fill="#fff"/><path d="M53.52,92.41a1.48,1.48,0,0,1-1.73,1.73h-7a1.81,1.81,0,0,1-1.32-.41A1.77,1.77,0,0,1,43,92.41V79.74a14.38,14.38,0,0,1,.45-3.31,37.4,37.4,0,0,1,1.42-4.37l4.18-10.9a2.26,2.26,0,0,1,.88-1.2,2.91,2.91,0,0,1,1.56-.38H64.42a2.82,2.82,0,0,1,1.51.38,2.33,2.33,0,0,1,.89,1.2L71,72.06a37.4,37.4,0,0,1,1.42,4.37,14.38,14.38,0,0,1,.45,3.31V92.41a1.81,1.81,0,0,1-.4,1.32,1.85,1.85,0,0,1-1.32.41H63.89a2.11,2.11,0,0,1-1.42-.41A1.7,1.7,0,0,1,62,92.41V85.69h-8.5ZM67.3,89.82h.48V79.6a13.62,13.62,0,0,0-.22-2.48,13.24,13.24,0,0,0-.6-2.18l-3.31-7.82a11.71,11.71,0,0,0-1.23-2.31,2.53,2.53,0,0,0-2.23-.91h-4.7a2.68,2.68,0,0,0-2.31.91A10.56,10.56,0,0,0,52,67.07l-3.07,7.87a15.56,15.56,0,0,0-.6,2.18,13.65,13.65,0,0,0-.21,2.48V89.82h.48V81.56H67.3ZM48.58,79.6a12.76,12.76,0,0,1,.21-2.4,16.39,16.39,0,0,1,.55-2.07l3.08-7.87a10.74,10.74,0,0,1,1-2,2.28,2.28,0,0,1,2-.84h4.7a2.15,2.15,0,0,1,1.92.84,12.16,12.16,0,0,1,1.11,2.09l3.31,7.82a14.86,14.86,0,0,1,.55,2.07,12.73,12.73,0,0,1,.22,2.4v1.48H48.58Zm7.68-9.94L54,77h7.54l-2.26-7.29a1.8,1.8,0,0,0-.41-.63.76.76,0,0,0-.5-.19h-1.2a.8.8,0,0,0-.51.19A1.8,1.8,0,0,0,56.26,69.66Z" fill="#fff"/><path d="M92.66,94.14H85.27a1.48,1.48,0,0,1-1.73-1.73V61.31a1.48,1.48,0,0,1,1.73-1.73h16q5.37,0,7.41,2.23a8.25,8.25,0,0,1,2,5.79v2.2a8.83,8.83,0,0,1-.6,3.44,3.77,3.77,0,0,1-2.09,2,6.28,6.28,0,0,1,4.2,2.11,7.06,7.06,0,0,1,1.61,4.85V92.41a1.77,1.77,0,0,1-.41,1.32,1.81,1.81,0,0,1-1.32.41h-7.44a1.47,1.47,0,0,1-1.72-1.73V85.07a2.45,2.45,0,0,0-.41-1.56,1.74,1.74,0,0,0-1.42-.51H94.39v9.41a1.48,1.48,0,0,1-1.73,1.73Zm-3.45-4.32V78.68h13.58a5.83,5.83,0,0,1,4,1.18,4.5,4.5,0,0,1,1.3,3.53v6.43h.48V83.39a4.92,4.92,0,0,0-1.44-3.82,6.29,6.29,0,0,0-4.37-1.32h-.53a3.39,3.39,0,0,0,2.31-1.94,9.83,9.83,0,0,0,.57-3.63V69.37a5.75,5.75,0,0,0-1.34-3.91,5.16,5.16,0,0,0-4.13-1.56H88.73V89.82ZM99.67,64.38a4.76,4.76,0,0,1,3.77,1.39,5.24,5.24,0,0,1,1.22,3.6v3.36a7.07,7.07,0,0,1-1,4.08c-.68,1-2,1.44-4,1.44H89.21V64.38Zm-5.28,3.84v6.14H98a1.89,1.89,0,0,0,1.68-.64,2.84,2.84,0,0,0,.43-1.61V70.47a2.81,2.81,0,0,0-.43-1.6A1.87,1.87,0,0,0,98,68.22Z" fill="#fff"/><path d="M133.2,94.1h-7.44A1.48,1.48,0,0,1,124,92.37V61.27a1.48,1.48,0,0,1,1.73-1.73h7.44a1.48,1.48,0,0,1,1.73,1.73v11h1.92l4.94-11.19a2.47,2.47,0,0,1,.91-1.22,2.79,2.79,0,0,1,1.49-.36h7.39a1.28,1.28,0,0,1,1.11.41,1.19,1.19,0,0,1-.05,1.17l-4.9,11.19A6,6,0,0,1,152,74.2a6.62,6.62,0,0,1,1.61,4.64V92.37a1.48,1.48,0,0,1-1.73,1.73h-7.39a1.48,1.48,0,0,1-1.73-1.73V83a1.78,1.78,0,0,0-.38-1.2,1.48,1.48,0,0,0-1.16-.43h-6.33v11a1.48,1.48,0,0,1-1.73,1.73Zm-3.46-4.32V77.11h12.91a6.87,6.87,0,0,1,4,1A3.75,3.75,0,0,1,148,81.33v8.45h.48V81.33a4.26,4.26,0,0,0-1.44-3.6,7.17,7.17,0,0,0-4.37-1.1h-2l5.52-12.77h-.53l-5.52,12.77H129.74V63.86h-.48V89.78Z" fill="#fff"/><path d="M165.6,94.14a1.48,1.48,0,0,1-1.73-1.73V86.7A1.48,1.48,0,0,1,165.6,85h4.75V68.84H165.6a1.77,1.77,0,0,1-1.32-.41,1.8,1.8,0,0,1-.41-1.31V61.31a1.48,1.48,0,0,1,1.73-1.73h20.45a1.85,1.85,0,0,1,1.32.41,1.81,1.81,0,0,1,.4,1.32v5.81a1.47,1.47,0,0,1-1.72,1.72h-4.66V85h4.66a1.85,1.85,0,0,1,1.32.41,1.81,1.81,0,0,1,.4,1.32v5.71a1.81,1.81,0,0,1-.4,1.32,1.85,1.85,0,0,1-1.32.41Zm17.85-4.32v-.48h-7.34v-25h7.34V63.9H168.19v.48h7.44v25h-7.44v.48Z" fill="#fff"/><path d="M207.41,94.14h-7.2a1.81,1.81,0,0,1-1.32-.41,1.77,1.77,0,0,1-.41-1.32V61.31a1.77,1.77,0,0,1,.41-1.32,1.81,1.81,0,0,1,1.32-.41h5a3.84,3.84,0,0,1,1.56.29,3.74,3.74,0,0,1,1.27,1l9.31,10.66V61.31a1.48,1.48,0,0,1,1.73-1.73h7.2A1.48,1.48,0,0,1,228,61.31v31.1a1.48,1.48,0,0,1-1.73,1.73h-7.2a1.48,1.48,0,0,1-1.73-1.73v-5.9l-8.21-9.94V92.41a1.81,1.81,0,0,1-.4,1.32A1.85,1.85,0,0,1,207.41,94.14Zm-2.6-29.86a2.28,2.28,0,0,0-.38-.33.57.57,0,0,0-.34-.1.69.69,0,0,0-.38.14.52.52,0,0,0-.19.44V89.82H204V64.52a.29.29,0,0,1,0-.09s0-.05.07-.05a.21.21,0,0,1,.12.05l.12.09,18.15,20.35v4.95H223V63.9h-.48V84.16Z" fill="#fff"/><path d="M255.45,94.1H240.28a1.8,1.8,0,0,1-1.31-.41,1.77,1.77,0,0,1-.41-1.32V86.76A1.48,1.48,0,0,1,240.28,85H253.2a1.11,1.11,0,0,0,.93-.41,1.55,1.55,0,0,0,.31-1,1.86,1.86,0,0,0-.31-1.2,1.29,1.29,0,0,0-.93-.44L246,81a10.47,10.47,0,0,1-5.4-2.21q-2-1.73-2-5.76V68a7.69,7.69,0,0,1,2.64-6.27,11.14,11.14,0,0,1,7.29-2.18h13.44a1.48,1.48,0,0,1,1.73,1.73V67a1.48,1.48,0,0,1-1.73,1.73H250.75a1.14,1.14,0,0,0-1,.41,1.52,1.52,0,0,0-.34,1,1.62,1.62,0,0,0,.34,1,1.25,1.25,0,0,0,1,.48l7.15,1a10.58,10.58,0,0,1,5.42,2.21q2.07,1.73,2.07,5.76v5a7.67,7.67,0,0,1-2.66,6.27A11.21,11.21,0,0,1,255.45,94.1Zm3.89-30.24H248.69a5.11,5.11,0,0,0-3.56,1.22,4.1,4.1,0,0,0-1.34,3.15v3.93a3.67,3.67,0,0,0,.79,2.72,4.07,4.07,0,0,0,2,1l10.13,2.06a4.1,4.1,0,0,1,2.14,1.13,4.61,4.61,0,0,1,.79,3.1v2.78a4.11,4.11,0,0,1-1.32,3.15,5,5,0,0,1-3.53,1.22h-12v.48h12a5.43,5.43,0,0,0,3.89-1.37,4.59,4.59,0,0,0,1.44-3.48V82.15a4.91,4.91,0,0,0-.94-3.46,4.47,4.47,0,0,0-2.37-1.25l-10.13-2.06a2.71,2.71,0,0,1-2.45-3.22V68.23a3.64,3.64,0,0,1,1.2-2.79,4.59,4.59,0,0,1,3.22-1.1h10.65Z" fill="#fff"/><path d="M304.68,85.07a11.78,11.78,0,0,1-.65,4,6.69,6.69,0,0,1-2.3,3.08,12.39,12.39,0,0,1-4.56,2,38.18,38.18,0,0,1-14.76,0,12.33,12.33,0,0,1-4.59-2,6.69,6.69,0,0,1-2.3-3.08,11.78,11.78,0,0,1-.65-4V68.7a11.83,11.83,0,0,1,.65-4,6.81,6.81,0,0,1,2.3-3.09,12,12,0,0,1,4.59-2,38.18,38.18,0,0,1,14.76,0,12.07,12.07,0,0,1,4.56,2,6.81,6.81,0,0,1,2.3,3.09,11.83,11.83,0,0,1,.65,4ZM299.45,84V69.8a5.91,5.91,0,0,0-2.07-4.68q-2.06-1.8-7.68-1.8c-3.74,0-6.29.6-7.63,1.8a6,6,0,0,0-2,4.68V84a6,6,0,0,0,2,4.68c1.34,1.2,3.89,1.8,7.63,1.8s6.31-.6,7.68-1.8A5.91,5.91,0,0,0,299.45,84Zm-18.92,0V69.8a5.45,5.45,0,0,1,1.92-4.34q1.92-1.66,7.25-1.66c3.55,0,6,.55,7.3,1.66a5.4,5.4,0,0,1,2,4.34V84a5.42,5.42,0,0,1-2,4.35c-1.31,1.1-3.75,1.65-7.3,1.65s-6-.55-7.25-1.65A5.47,5.47,0,0,1,280.53,84Zm5.24-.62a2.09,2.09,0,0,0,.72,1.61c.48.43,1.58.65,3.31.65s2.83-.22,3.31-.65a2.09,2.09,0,0,0,.72-1.61V70.43a2,2,0,0,0-.72-1.56c-.48-.44-1.58-.65-3.31-.65s-2.83.21-3.31.65a2,2,0,0,0-.72,1.56Z" fill="#fff"/><path d="M324.52,94.14h-7.2a1.85,1.85,0,0,1-1.32-.41,1.81,1.81,0,0,1-.4-1.32V61.31A1.81,1.81,0,0,1,316,60a1.85,1.85,0,0,1,1.32-.41h5a3.91,3.91,0,0,1,1.56.29,3.74,3.74,0,0,1,1.27,1l9.31,10.66V61.31a1.48,1.48,0,0,1,1.73-1.73h7.2a1.48,1.48,0,0,1,1.73,1.73v31.1a1.48,1.48,0,0,1-1.73,1.73h-7.2a1.48,1.48,0,0,1-1.73-1.73v-5.9l-8.21-9.94V92.41a1.77,1.77,0,0,1-.41,1.32A1.81,1.81,0,0,1,324.52,94.14Zm-2.59-29.86a2.28,2.28,0,0,0-.38-.33.57.57,0,0,0-.34-.1.66.66,0,0,0-.38.14.52.52,0,0,0-.19.44V89.82h.48V64.52a.15.15,0,0,1,0-.09s0-.05.07-.05a.28.28,0,0,1,.12.05l.12.09L339.6,84.87v4.95h.48V63.9h-.48V84.16Z" fill="#fff"/><path d="M25.59,42.45H2.39A2.39,2.39,0,0,1,.64,41.9a2.39,2.39,0,0,1-.55-1.75V7.75a3.22,3.22,0,0,1,.17-1.1A1.93,1.93,0,0,1,.79,5.9L7.24.45A2.15,2.15,0,0,1,7.92.12,3.36,3.36,0,0,1,8.84,0H32a2.39,2.39,0,0,1,1.75.55,2.39,2.39,0,0,1,.55,1.75V8.15a3.22,3.22,0,0,1-.17,1.1,1.93,1.93,0,0,1-.53.75l-4.3,3.55a1.5,1.5,0,0,1,.72.75,3.19,3.19,0,0,1,.23,1.3V21a3,3,0,0,1-.18,1.1,1.81,1.81,0,0,1-.52.75l-4.45,3.75H32a2.39,2.39,0,0,1,1.75.55,2.39,2.39,0,0,1,.55,1.75V34.7a3.22,3.22,0,0,1-.17,1.1,1.93,1.93,0,0,1-.53.75L27.14,42a1.66,1.66,0,0,1-.63.35A2.73,2.73,0,0,1,25.59,42.45Zm6.45-6a1.53,1.53,0,0,0,1.8-1.8V28.85a1.54,1.54,0,0,0-1.8-1.8H18.24v-4.3H28a1.89,1.89,0,0,0,1.37-.42A1.89,1.89,0,0,0,29.79,21V15.6a1.85,1.85,0,0,0-.43-1.37A1.85,1.85,0,0,0,28,13.8H18.24V10H32a1.89,1.89,0,0,0,1.38-.43,1.89,1.89,0,0,0,.42-1.37V2.3A1.93,1.93,0,0,0,33.42.92,1.93,1.93,0,0,0,32,.5H8.84A1.93,1.93,0,0,0,7.46.92,1.93,1.93,0,0,0,7,2.3V34.7a1.93,1.93,0,0,0,.42,1.38,1.93,1.93,0,0,0,1.38.42Zm-2.7-5V32H12.49V5H29.34v.5H13V18.05h12.3v.5H13v13Z" fill="#3f3f3f"/><path d="M55.59,36.55,49.09,42a1.66,1.66,0,0,1-.63.35,2.73,2.73,0,0,1-.92.15H40.09a2,2,0,0,1-2.3-2.3V7.75A3.22,3.22,0,0,1,38,6.65a1.93,1.93,0,0,1,.53-.75L44.94.45a2.2,2.2,0,0,1,.67-.33A3.48,3.48,0,0,1,46.54,0h8.05a2.82,2.82,0,0,1,1.57.4,3.92,3.92,0,0,1,1.18,1.35L60.74,8l.45-.8c.13-.23.27-.46.42-.68A2.43,2.43,0,0,1,62.09,6L68.54.6A2.78,2.78,0,0,1,70.39,0h8.1a2.39,2.39,0,0,1,1.75.55,2.39,2.39,0,0,1,.55,1.75V34.7a3,3,0,0,1-.18,1.1,1.81,1.81,0,0,1-.52.75L73.59,42a1.66,1.66,0,0,1-.63.35,2.73,2.73,0,0,1-.92.15h-7.7a2.39,2.39,0,0,1-1.78-.55A2.47,2.47,0,0,1,62,40.15V27L59.09,29.4a2.66,2.66,0,0,1-.93.52,3.73,3.73,0,0,1-1.22.18h-.65v4.6a3,3,0,0,1-.18,1.1A1.81,1.81,0,0,1,55.59,36.55Zm-1.6,0a1.54,1.54,0,0,0,1.8-1.8V17.1l3,5.45a2.68,2.68,0,0,0,2.65,1.6h2A2.71,2.71,0,0,0,66,22.55L69,17.1V34.7a1.53,1.53,0,0,0,1.8,1.8h7.7a1.54,1.54,0,0,0,1.8-1.8V2.3A1.89,1.89,0,0,0,79.86.92,1.89,1.89,0,0,0,78.49.5h-8.1a2.39,2.39,0,0,0-1.33.35,3.27,3.27,0,0,0-1,1.15l-4.45,8.15a3.79,3.79,0,0,1-.43.65.59.59,0,0,1-.47.2h-.45a.63.63,0,0,1-.48-.2,4.64,4.64,0,0,1-.42-.65L56.89,2a3.28,3.28,0,0,0-1-1.15A2.36,2.36,0,0,0,54.59.5H46.54a1.93,1.93,0,0,0-1.38.42,1.93,1.93,0,0,0-.42,1.38V34.7a1.53,1.53,0,0,0,1.8,1.8Zm8.35-19.25a1.78,1.78,0,0,0,1.3-.4,12.35,12.35,0,0,0,1.25-1.7L71,5.85a1.68,1.68,0,0,1,.67-.68A1.92,1.92,0,0,1,72.44,5h.85a1.23,1.23,0,0,1,1,.38,1.72,1.72,0,0,1,.33,1.17V32h-.5V6.55A1.43,1.43,0,0,0,74,5.83a.68.68,0,0,0-.67-.33h-.75a1.57,1.57,0,0,0-.6.1,1.41,1.41,0,0,0-.55.6l-6.1,9.2a14.65,14.65,0,0,1-1.38,1.85,2.1,2.1,0,0,1-1.57.5,2.14,2.14,0,0,1-1.58-.5,16,16,0,0,1-1.37-1.85l-6.1-9.2a1.33,1.33,0,0,0-.58-.6,1.72,1.72,0,0,0-.62-.1h-.75a.64.64,0,0,0-.65.33,1.66,1.66,0,0,0-.15.72V32H50V6.55a1.78,1.78,0,0,1,.32-1.17,1.21,1.21,0,0,1,1-.38h.85a2.09,2.09,0,0,1,.8.17,1.62,1.62,0,0,1,.7.68l6.1,9.3A12.35,12.35,0,0,0,61,16.85,1.78,1.78,0,0,0,62.34,17.25Z" fill="#3f3f3f"/><path d="M103,36.55,96.54,42a1.74,1.74,0,0,1-.63.35,2.73,2.73,0,0,1-.92.15H87.54a2,2,0,0,1-2.3-2.3V7.75a3.22,3.22,0,0,1,.17-1.1,1.93,1.93,0,0,1,.53-.75L92.39.45a2.2,2.2,0,0,1,.67-.33A3.43,3.43,0,0,1,94,0H102a2.82,2.82,0,0,1,1.57.4,3.92,3.92,0,0,1,1.18,1.35L108.19,8l.45-.8c.13-.23.27-.46.42-.68a2.43,2.43,0,0,1,.48-.52L116,.6a2.78,2.78,0,0,1,1.85-.6h8.1a2.39,2.39,0,0,1,1.75.55,2.39,2.39,0,0,1,.55,1.75V34.7a3,3,0,0,1-.18,1.1,1.81,1.81,0,0,1-.52.75L121,42a1.74,1.74,0,0,1-.63.35,2.73,2.73,0,0,1-.92.15h-7.7A2.39,2.39,0,0,1,110,41.9a2.47,2.47,0,0,1-.52-1.75V27l-2.95,2.45a2.66,2.66,0,0,1-.93.52,3.78,3.78,0,0,1-1.22.18h-.65v4.6a3,3,0,0,1-.18,1.1A1.81,1.81,0,0,1,103,36.55Zm-1.6,0a1.54,1.54,0,0,0,1.8-1.8V17.1l3,5.45a2.68,2.68,0,0,0,2.65,1.6h2a2.71,2.71,0,0,0,2.65-1.6l3-5.45V34.7a1.53,1.53,0,0,0,1.8,1.8h7.7a1.54,1.54,0,0,0,1.8-1.8V2.3a1.89,1.89,0,0,0-.43-1.38A1.89,1.89,0,0,0,125.94.5h-8.1a2.39,2.39,0,0,0-1.33.35,3.27,3.27,0,0,0-1,1.15l-4.45,8.15a3.79,3.79,0,0,1-.43.65.59.59,0,0,1-.47.2h-.45a.63.63,0,0,1-.48-.2,4.64,4.64,0,0,1-.42-.65L104.34,2a3.28,3.28,0,0,0-1-1.15A2.36,2.36,0,0,0,102,.5H94a1.91,1.91,0,0,0-1.38.42,1.93,1.93,0,0,0-.42,1.38V34.7A1.53,1.53,0,0,0,94,36.5Zm8.35-19.25a1.78,1.78,0,0,0,1.3-.4,13.28,13.28,0,0,0,1.25-1.7l6.1-9.3a1.68,1.68,0,0,1,.67-.68,1.92,1.92,0,0,1,.78-.17h.85a1.23,1.23,0,0,1,1,.38,1.72,1.72,0,0,1,.33,1.17V32h-.5V6.55a1.43,1.43,0,0,0-.18-.72.68.68,0,0,0-.67-.33H120a1.57,1.57,0,0,0-.6.1,1.41,1.41,0,0,0-.55.6l-6.1,9.2a14.65,14.65,0,0,1-1.38,1.85,2.1,2.1,0,0,1-1.57.5,2.14,2.14,0,0,1-1.58-.5,16,16,0,0,1-1.37-1.85l-6.1-9.2a1.33,1.33,0,0,0-.58-.6,1.72,1.72,0,0,0-.62-.1h-.75a.64.64,0,0,0-.65.33,1.66,1.66,0,0,0-.15.72V32h-.5V6.55a1.78,1.78,0,0,1,.32-1.17,1.2,1.2,0,0,1,1-.38h.85a2.13,2.13,0,0,1,.8.17,1.62,1.62,0,0,1,.7.68l6.1,9.3a12.35,12.35,0,0,0,1.25,1.7A1.78,1.78,0,0,0,109.79,17.25Z" fill="#3f3f3f"/><path d="M143.14,42a1.66,1.66,0,0,1-.63.35,2.73,2.73,0,0,1-.92.15h-7.35a2,2,0,0,1-2.3-2.3V27a15.69,15.69,0,0,1,.47-3.53,38.33,38.33,0,0,1,1.53-4.67l4.3-11.3a3.14,3.14,0,0,1,.37-.78,4.51,4.51,0,0,1,.48-.57l0,0L145.54.7a2.75,2.75,0,0,1,1-.53A4.29,4.29,0,0,1,147.74,0h13.45a3.3,3.3,0,0,1,1.87.48A2.7,2.7,0,0,1,164.14,2l4.35,11.35A36,36,0,0,1,170,18a15,15,0,0,1,.48,3.52V34.7a3,3,0,0,1-.18,1.1,1.81,1.81,0,0,1-.52.75l-6.5,5.4a1.66,1.66,0,0,1-.63.35,2.73,2.73,0,0,1-.92.15h-7.55a2.59,2.59,0,0,1-1.85-.57,2.3,2.3,0,0,1-.6-1.73v-6.5h-1.4V34.7a3,3,0,0,1-.18,1.1,1.81,1.81,0,0,1-.52.75Zm6.7-7.25v-7h8.85v7a1.81,1.81,0,0,0,.47,1.38,2.2,2.2,0,0,0,1.48.42h7.55a1.54,1.54,0,0,0,1.8-1.8V21.5a14.65,14.65,0,0,0-.48-3.45A36,36,0,0,0,168,13.5L163.69,2.15A2.34,2.34,0,0,0,162.76.9a2.82,2.82,0,0,0-1.57-.4H147.74a3,3,0,0,0-1.63.4,2.37,2.37,0,0,0-.92,1.25L140.84,13.5a38,38,0,0,0-1.48,4.55,15.12,15.12,0,0,0-.47,3.45V34.7a1.53,1.53,0,0,0,1.8,1.8H148a1.54,1.54,0,0,0,1.8-1.8ZM164.19,32V23.4h-19.5V32h-.5V21.35a13.86,13.86,0,0,1,.22-2.58A14.36,14.36,0,0,1,145,16.5l3.2-8.2A9.93,9.93,0,0,1,149.49,6a2.81,2.81,0,0,1,2.4-1h4.9a2.66,2.66,0,0,1,2.32,1,12.05,12.05,0,0,1,1.28,2.4l3.45,8.15a15.5,15.5,0,0,1,.62,2.27,13.83,13.83,0,0,1,.23,2.58V32Zm-19.5-10.65V22.9h19.5V21.35a13,13,0,0,0-.23-2.5,16,16,0,0,0-.57-2.15l-3.45-8.15a12.35,12.35,0,0,0-1.15-2.17,2.24,2.24,0,0,0-2-.88h-4.9a2.35,2.35,0,0,0-2.1.88,10.72,10.72,0,0,0-1.1,2.12l-3.2,8.2a16,16,0,0,0-.58,2.15A13.07,13.07,0,0,0,144.69,21.35Zm8-10.35a1.82,1.82,0,0,1,.42-.65.79.79,0,0,1,.53-.2h1.25a.77.77,0,0,1,.52.2,1.83,1.83,0,0,1,.43.65l2.35,7.6h-7.85Z" fill="#3f3f3f"/><path d="M208.29,36.55l-6.5,5.4a1.74,1.74,0,0,1-.63.35,2.73,2.73,0,0,1-.92.15h-7.75a2,2,0,0,1-2.3-2.3V7.75a3.22,3.22,0,0,1,.17-1.1,1.83,1.83,0,0,1,.53-.75L197.34.45A2.09,2.09,0,0,1,198,.12a3.43,3.43,0,0,1,.93-.12h7.75a2.39,2.39,0,0,1,1.75.55A2.43,2.43,0,0,1,209,2.3V6.85c.1-.13.2-.27.3-.43a1.38,1.38,0,0,1,.35-.37L216.09.6A2.24,2.24,0,0,1,217,.15,4.28,4.28,0,0,1,218.14,0h7.7a1.85,1.85,0,0,1,1.65.62,1.83,1.83,0,0,1-.1,1.73l-4.8,11a6.39,6.39,0,0,1,4.3,2.3,7.58,7.58,0,0,1,1.6,5V34.7a3,3,0,0,1-.18,1.1,1.81,1.81,0,0,1-.52.75l-6.5,5.4a1.74,1.74,0,0,1-.63.35,2.73,2.73,0,0,1-.92.15H212a2,2,0,0,1-2.3-2.3V30.4a1.46,1.46,0,0,0-.2-.8.77.77,0,0,0-.55-.35V34.7a3,3,0,0,1-.18,1.1A1.81,1.81,0,0,1,208.29,36.55Zm-1.6,0a1.54,1.54,0,0,0,1.8-1.8V23.25h6.6a1.53,1.53,0,0,1,1.2.45,1.86,1.86,0,0,1,.4,1.25V34.7a1.53,1.53,0,0,0,1.8,1.8h7.7a1.54,1.54,0,0,0,1.8-1.8V20.6a6.86,6.86,0,0,0-1.68-4.83,6.27,6.27,0,0,0-4.47-2l5.1-11.65A1.26,1.26,0,0,0,227,.92,1.34,1.34,0,0,0,225.84.5h-7.7a2.78,2.78,0,0,0-1.55.38,2.43,2.43,0,0,0-1,1.27L210.49,13.8h-2V2.3a1.89,1.89,0,0,0-.43-1.38A1.89,1.89,0,0,0,206.69.5h-7.75a1.91,1.91,0,0,0-1.38.42,1.93,1.93,0,0,0-.42,1.38V34.7a1.53,1.53,0,0,0,1.8,1.8Zm-3.6-4.5h-.5V5h.5V18.3h10.85L219.69,5h.55l-5.75,13.3h2a7.42,7.42,0,0,1,4.55,1.15,4.44,4.44,0,0,1,1.5,3.75V32h-.5V23.2a3.9,3.9,0,0,0-1.4-3.4,7.12,7.12,0,0,0-4.15-1H203.09Z" fill="#3f3f3f"/><path d="M242.94,42a1.74,1.74,0,0,1-.63.35,2.73,2.73,0,0,1-.92.15H234a2,2,0,0,1-2.3-2.3V27a15.69,15.69,0,0,1,.47-3.53,38.33,38.33,0,0,1,1.53-4.67L238,7.45a3.14,3.14,0,0,1,.37-.78,4.51,4.51,0,0,1,.48-.57l.05,0L245.34.7a2.66,2.66,0,0,1,.95-.53A4.29,4.29,0,0,1,247.54,0H261a3.33,3.33,0,0,1,1.87.48A2.74,2.74,0,0,1,263.94,2l4.35,11.35A36,36,0,0,1,269.81,18a15,15,0,0,1,.48,3.52V34.7a3,3,0,0,1-.18,1.1,1.81,1.81,0,0,1-.52.75l-6.5,5.4a1.74,1.74,0,0,1-.63.35,2.73,2.73,0,0,1-.92.15H254a2.59,2.59,0,0,1-1.85-.57,2.3,2.3,0,0,1-.6-1.73v-6.5h-1.4V34.7a3,3,0,0,1-.18,1.1,1.81,1.81,0,0,1-.52.75Zm6.7-7.25v-7h8.85v7a1.81,1.81,0,0,0,.47,1.38,2.2,2.2,0,0,0,1.48.42H268a1.54,1.54,0,0,0,1.8-1.8V21.5a14.65,14.65,0,0,0-.48-3.45,37.73,37.73,0,0,0-1.47-4.55L263.49,2.15A2.34,2.34,0,0,0,262.56.9,2.82,2.82,0,0,0,261,.5H247.54a3,3,0,0,0-1.63.4A2.37,2.37,0,0,0,245,2.15L240.64,13.5a38,38,0,0,0-1.48,4.55,15.12,15.12,0,0,0-.47,3.45V34.7a1.53,1.53,0,0,0,1.8,1.8h7.35a1.54,1.54,0,0,0,1.8-1.8ZM264,32V23.4h-19.5V32H244V21.35a13.86,13.86,0,0,1,.22-2.58,14.36,14.36,0,0,1,.63-2.27L248,8.3A9.93,9.93,0,0,1,249.29,6a2.78,2.78,0,0,1,2.4-1h4.9a2.66,2.66,0,0,1,2.32,1,12.05,12.05,0,0,1,1.28,2.4l3.45,8.15a15.5,15.5,0,0,1,.62,2.27,13.83,13.83,0,0,1,.23,2.58V32Zm-19.5-10.65V22.9H264V21.35a13,13,0,0,0-.23-2.5,16,16,0,0,0-.57-2.15l-3.45-8.15a12.35,12.35,0,0,0-1.15-2.17,2.24,2.24,0,0,0-2-.88h-4.9a2.35,2.35,0,0,0-2.1.88,10.72,10.72,0,0,0-1.1,2.12l-3.2,8.2a14.65,14.65,0,0,0-.58,2.15A13.07,13.07,0,0,0,244.49,21.35Zm8-10.35a1.82,1.82,0,0,1,.42-.65.79.79,0,0,1,.53-.2h1.25a.77.77,0,0,1,.52.2,2,2,0,0,1,.43.65L258,18.6h-7.85Z" fill="#3f3f3f"/><path d="M289.49,42.45h-8.1a2,2,0,0,1-2.3-2.3v-24h-6.85a2.37,2.37,0,0,1-1.75-.55,2.39,2.39,0,0,1-.55-1.75V7.75a3.22,3.22,0,0,1,.17-1.1,1.83,1.83,0,0,1,.53-.75L277.09.45a2.09,2.09,0,0,1,.67-.33,3.43,3.43,0,0,1,.93-.12h26.4a2.39,2.39,0,0,1,1.75.55,2.43,2.43,0,0,1,.55,1.75V8.35a3,3,0,0,1-.18,1.1,1.81,1.81,0,0,1-.52.75l-6.5,5.4a1.74,1.74,0,0,1-.63.35,2.73,2.73,0,0,1-.92.15h-.4V34.7a3,3,0,0,1-.18,1.1,1.81,1.81,0,0,1-.52.75L291,42a1.74,1.74,0,0,1-.63.35A2.73,2.73,0,0,1,289.49,42.45Zm6.45-6a1.54,1.54,0,0,0,1.8-1.8V10.15h7.35a1.89,1.89,0,0,0,1.37-.42,1.89,1.89,0,0,0,.43-1.38v-6a1.89,1.89,0,0,0-.43-1.38A1.89,1.89,0,0,0,305.09.5h-26.4a1.91,1.91,0,0,0-1.38.42,1.93,1.93,0,0,0-.42,1.38V8.35a1.93,1.93,0,0,0,.42,1.38,1.91,1.91,0,0,0,1.38.42H286V34.7a1.53,1.53,0,0,0,1.8,1.8Zm-4.3-4.5V5.5H281.39V5h21v.5H292.14V32Z" fill="#3f3f3f"/><path d="M335.29,42.45h-23.2a2,2,0,0,1-2.3-2.3V7.75a3.22,3.22,0,0,1,.17-1.1,1.83,1.83,0,0,1,.53-.75L316.94.45a2.09,2.09,0,0,1,.67-.33,3.43,3.43,0,0,1,.93-.12h23.2a2.39,2.39,0,0,1,1.75.55A2.43,2.43,0,0,1,344,2.3V8.15a3,3,0,0,1-.18,1.1,1.81,1.81,0,0,1-.52.75L339,13.55a1.54,1.54,0,0,1,.72.75,3.19,3.19,0,0,1,.23,1.3V21a3,3,0,0,1-.18,1.1,1.81,1.81,0,0,1-.52.75l-4.45,3.75h6.9a2.39,2.39,0,0,1,1.75.55,2.43,2.43,0,0,1,.55,1.75V34.7a3,3,0,0,1-.18,1.1,1.81,1.81,0,0,1-.52.75l-6.5,5.4a1.74,1.74,0,0,1-.63.35A2.73,2.73,0,0,1,335.29,42.45Zm6.45-6a1.54,1.54,0,0,0,1.8-1.8V28.85a1.55,1.55,0,0,0-1.8-1.8h-13.8v-4.3h9.75a1.89,1.89,0,0,0,1.37-.42,1.89,1.89,0,0,0,.43-1.38V15.6a1.85,1.85,0,0,0-.43-1.37,1.85,1.85,0,0,0-1.37-.43h-9.75V10h13.8a1.85,1.85,0,0,0,1.37-.43,1.85,1.85,0,0,0,.43-1.37V2.3a1.89,1.89,0,0,0-.43-1.38A1.89,1.89,0,0,0,341.74.5h-23.2a1.91,1.91,0,0,0-1.38.42,1.93,1.93,0,0,0-.42,1.38V34.7a1.53,1.53,0,0,0,1.8,1.8Zm-2.7-5V32H322.19V5H339v.5H322.69V18.05H335v.5h-12.3v13Z" fill="#3f3f3f"/><path d="M9.65,99.81H2.21a2.26,2.26,0,0,1-1.68-.53A2.3,2.3,0,0,1,0,97.6V66.5a3,3,0,0,1,.17-1.06,1.91,1.91,0,0,1,.5-.72l6.19-5.23a1.87,1.87,0,0,1,.65-.31,3.14,3.14,0,0,1,.89-.12H23.09a19.42,19.42,0,0,1,5.71.72,9,9,0,0,1,3.65,2,7.05,7.05,0,0,1,1.89,3.12,13.57,13.57,0,0,1,.56,4V75a12.94,12.94,0,0,1-.65,4.2A7.24,7.24,0,0,1,32,82.48l-6.24,5.19a9.65,9.65,0,0,1-3.1,1.65,16.11,16.11,0,0,1-4.63.75v2.3a3,3,0,0,1-.17,1.06,1.76,1.76,0,0,1-.5.72l-6.24,5.18a1.66,1.66,0,0,1-.6.34A2.86,2.86,0,0,1,9.65,99.81Zm6.19-5.71a1.81,1.81,0,0,0,1.32-.41,1.81,1.81,0,0,0,.41-1.32v-8h5.52q6.53,0,8.93-2.59A9.56,9.56,0,0,0,34.42,75V68.9A9.58,9.58,0,0,0,32,62.13q-2.4-2.6-8.93-2.59H8.4A1.81,1.81,0,0,0,7.08,60a1.81,1.81,0,0,0-.41,1.32v31.1a1.81,1.81,0,0,0,.41,1.32,1.81,1.81,0,0,0,1.32.41Zm6.58-13.78H12.53v9.46h-.48V63.86H22.42a11.36,11.36,0,0,1,3.67.5,5.27,5.27,0,0,1,2.18,1.37,4.75,4.75,0,0,1,1.06,2.07,11.16,11.16,0,0,1,.29,2.59v3.55a10.93,10.93,0,0,1-.29,2.57,4.53,4.53,0,0,1-1.06,2,5.11,5.11,0,0,1-2.18,1.32A11.7,11.7,0,0,1,22.42,80.32Zm-9.89-.48h9.89a11.25,11.25,0,0,0,3.43-.43,4.63,4.63,0,0,0,2-1.22,4.16,4.16,0,0,0,1-1.87,9.85,9.85,0,0,0,.27-2.38V70.39a10,10,0,0,0-.27-2.4,4.29,4.29,0,0,0-1-1.92,4.6,4.6,0,0,0-2-1.27,10.57,10.57,0,0,0-3.43-.46H12.53Zm4.94-11.32h4.32a2,2,0,0,1,1.83.72,3.17,3.17,0,0,1,.43,1.63v2.54A3.17,3.17,0,0,1,23.62,75a2,2,0,0,1-1.83.72H17.47Z" fill="#3f3f3f"/><path d="M47.09,99.33a1.66,1.66,0,0,1-.6.34,2.81,2.81,0,0,1-.89.14H38.54a1.9,1.9,0,0,1-2.2-2.21V84.93a14.79,14.79,0,0,1,.45-3.38,35.45,35.45,0,0,1,1.47-4.49l4.12-10.85a3.19,3.19,0,0,1,.36-.74,4.31,4.31,0,0,1,.46-.55l0,0,6.14-5.14a2.6,2.6,0,0,1,.91-.5,4.09,4.09,0,0,1,1.2-.17H64.42a3.21,3.21,0,0,1,1.8.46,2.69,2.69,0,0,1,1,1.41l4.17,10.9a35.45,35.45,0,0,1,1.47,4.49,14.79,14.79,0,0,1,.45,3.38V92.37a3,3,0,0,1-.16,1.06,1.79,1.79,0,0,1-.51.72l-6.24,5.18a1.66,1.66,0,0,1-.6.34,2.81,2.81,0,0,1-.89.14H57.7a2.48,2.48,0,0,1-1.78-.55,2.22,2.22,0,0,1-.58-1.66V91.36H54v1a3,3,0,0,1-.17,1.06,1.76,1.76,0,0,1-.5.72Zm6.43-7V85.65H62v6.72a1.7,1.7,0,0,0,.45,1.32,2.11,2.11,0,0,0,1.42.41h7.25a1.85,1.85,0,0,0,1.32-.41,1.81,1.81,0,0,0,.4-1.32V79.7a14.38,14.38,0,0,0-.45-3.31A37.4,37.4,0,0,0,71,72l-4.17-10.9a2.33,2.33,0,0,0-.89-1.2,2.82,2.82,0,0,0-1.51-.38H51.5a2.91,2.91,0,0,0-1.56.38,2.26,2.26,0,0,0-.88,1.2L44.88,72a37.4,37.4,0,0,0-1.42,4.37A14.38,14.38,0,0,0,43,79.7V92.37a1.77,1.77,0,0,0,.41,1.32,1.81,1.81,0,0,0,1.32.41h7a1.48,1.48,0,0,0,1.73-1.73ZM67.3,89.78V81.52H48.58v8.26H48.1V79.56a13.65,13.65,0,0,1,.21-2.48,15.56,15.56,0,0,1,.6-2.18L52,67a10.56,10.56,0,0,1,1.2-2.26,2.68,2.68,0,0,1,2.31-.91h4.7a2.53,2.53,0,0,1,2.23.91,11.71,11.71,0,0,1,1.23,2.31L67,74.9a13.24,13.24,0,0,1,.6,2.18,13.62,13.62,0,0,1,.22,2.48V89.78ZM48.58,79.56V81H67.3V79.56a12.73,12.73,0,0,0-.22-2.4,14.86,14.86,0,0,0-.55-2.07l-3.31-7.82a12.16,12.16,0,0,0-1.11-2.09,2.15,2.15,0,0,0-1.92-.84h-4.7a2.28,2.28,0,0,0-2,.84,10.74,10.74,0,0,0-1,2l-3.08,7.87a16.39,16.39,0,0,0-.55,2.07A12.76,12.76,0,0,0,48.58,79.56Zm7.68-9.94a1.66,1.66,0,0,1,.4-.62.76.76,0,0,1,.51-.2h1.2a.72.72,0,0,1,.5.2,1.66,1.66,0,0,1,.41.62l2.26,7.3H54Z" fill="#3f3f3f"/><path d="M94.22,94.15,88,99.33a1.58,1.58,0,0,1-.6.34,2.8,2.8,0,0,1-.88.14H79.1a2.27,2.27,0,0,1-1.68-.53,2.3,2.3,0,0,1-.52-1.68V66.5a3,3,0,0,1,.16-1.06,1.93,1.93,0,0,1,.51-.72l6.19-5.23a1.79,1.79,0,0,1,.65-.31,3.12,3.12,0,0,1,.88-.12h16c3.81,0,6.41.79,7.82,2.38a8.85,8.85,0,0,1,2.12,6.12v2.2a9.9,9.9,0,0,1-.44,3.1A4.59,4.59,0,0,1,109.39,75h0A6.45,6.45,0,0,1,113,77.49a7.8,7.8,0,0,1,1.37,4.71V92.37a3,3,0,0,1-.17,1.06,1.79,1.79,0,0,1-.51.72l-6.24,5.18a1.58,1.58,0,0,1-.6.34,2.75,2.75,0,0,1-.88.14H98.5a1.91,1.91,0,0,1-2.21-2.21V90.26A2.08,2.08,0,0,0,96,89.08a1.22,1.22,0,0,0-1.06-.4h0v3.69a3,3,0,0,1-.17,1.06A1.79,1.79,0,0,1,94.22,94.15Zm-1.53-.05a1.48,1.48,0,0,0,1.73-1.73V83h6.72a1.7,1.7,0,0,1,1.41.51A2.45,2.45,0,0,1,103,85v7.34a1.48,1.48,0,0,0,1.73,1.73h7.44a1.47,1.47,0,0,0,1.72-1.73V82.2a7.06,7.06,0,0,0-1.6-4.85,6.3,6.3,0,0,0-4.2-2.11,3.8,3.8,0,0,0,2.09-2,9,9,0,0,0,.6-3.44v-2.2a8.26,8.26,0,0,0-2-5.79c-1.35-1.49-3.83-2.23-7.41-2.23h-16A1.8,1.8,0,0,0,84,60a1.77,1.77,0,0,0-.41,1.32v31.1A1.77,1.77,0,0,0,84,93.69a1.8,1.8,0,0,0,1.31.41Zm-3.46-4.32h-.48V63.86H99.69a5.15,5.15,0,0,1,4.13,1.56,5.76,5.76,0,0,1,1.35,3.91v3.31a9.61,9.61,0,0,1-.58,3.63,3.36,3.36,0,0,1-2.3,1.94h.53a6.26,6.26,0,0,1,4.36,1.32,4.92,4.92,0,0,1,1.44,3.82v6.43h-.48V83.35a4.53,4.53,0,0,0-1.29-3.53,5.9,5.9,0,0,0-4-1.18H89.23ZM99.69,64.34H89.23V78.21H99.69q3,0,4-1.44a7.07,7.07,0,0,0,1-4.08V69.33a5.24,5.24,0,0,0-1.23-3.6A4.74,4.74,0,0,0,99.69,64.34Zm-5.27,3.84H98a1.86,1.86,0,0,1,1.67.65,2.83,2.83,0,0,1,.44,1.61v1.63a2.85,2.85,0,0,1-.44,1.61,1.86,1.86,0,0,1-1.67.64h-3.6Z" fill="#3f3f3f"/><path d="M134.73,94.15l-6.24,5.18a1.53,1.53,0,0,1-.59.34,2.86,2.86,0,0,1-.89.14h-7.44a1.91,1.91,0,0,1-2.21-2.21V66.5a2.77,2.77,0,0,1,.17-1.06,1.91,1.91,0,0,1,.5-.72l6.19-5.23a1.87,1.87,0,0,1,.65-.31,3.14,3.14,0,0,1,.89-.12h7.44a1.91,1.91,0,0,1,2.21,2.21v4.37l.28-.41a1.31,1.31,0,0,1,.34-.36l6.19-5.23a2.24,2.24,0,0,1,.84-.44,4.37,4.37,0,0,1,1.13-.14h7.39a1.77,1.77,0,0,1,1.59.6,1.74,1.74,0,0,1-.1,1.66l-4.61,10.56a6.14,6.14,0,0,1,4.13,2.2,7.3,7.3,0,0,1,1.54,4.76V92.37a3,3,0,0,1-.17,1.06,1.7,1.7,0,0,1-.51.72l-6.24,5.18a1.5,1.5,0,0,1-.6.34,2.75,2.75,0,0,1-.88.14h-7.4a1.9,1.9,0,0,1-2.2-2.21V88.24a1.4,1.4,0,0,0-.19-.76.73.73,0,0,0-.53-.34v5.23a3,3,0,0,1-.17,1.06A1.7,1.7,0,0,1,134.73,94.15Zm-1.53-.05a1.48,1.48,0,0,0,1.73-1.73v-11h6.33a1.44,1.44,0,0,1,1.15.43,1.73,1.73,0,0,1,.39,1.2v9.36a1.77,1.77,0,0,0,.41,1.32,1.81,1.81,0,0,0,1.32.41h7.39a1.48,1.48,0,0,0,1.73-1.73V78.84A6.62,6.62,0,0,0,152,74.2a6,6,0,0,0-4.3-1.89l4.9-11.19a1.19,1.19,0,0,0,.05-1.17,1.29,1.29,0,0,0-1.11-.41h-7.39a2.79,2.79,0,0,0-1.49.36,2.42,2.42,0,0,0-.91,1.22l-4.94,11.19h-1.92v-11a1.48,1.48,0,0,0-1.73-1.73h-7.44A1.48,1.48,0,0,0,124,61.27v31.1a1.48,1.48,0,0,0,1.73,1.73Zm-3.46-4.32h-.48V63.86h.48V76.63h10.42l5.52-12.77h.53l-5.52,12.77h2a7.17,7.17,0,0,1,4.37,1.1,4.26,4.26,0,0,1,1.44,3.6v8.45H148V81.33a3.75,3.75,0,0,0-1.34-3.26,6.87,6.87,0,0,0-4-1H129.74Z" fill="#3f3f3f"/><path d="M179.85,99.81H159.41a1.91,1.91,0,0,1-2.21-2.21V91.89a2.72,2.72,0,0,1,.17-1,1.76,1.76,0,0,1,.5-.72l5.81-4.9V74.52h-4.27a2.3,2.3,0,0,1-1.68-.53,2.26,2.26,0,0,1-.53-1.68V66.5a2.77,2.77,0,0,1,.17-1.06,1.91,1.91,0,0,1,.5-.72l6.19-5.23a1.87,1.87,0,0,1,.65-.31,3.14,3.14,0,0,1,.89-.12h20.45a2.33,2.33,0,0,1,1.68.53,2.3,2.3,0,0,1,.52,1.68v5.81a3,3,0,0,1-.16,1,1.79,1.79,0,0,1-.51.72l-5.71,4.8v10.8h4.18a2.33,2.33,0,0,1,1.68.53,2.3,2.3,0,0,1,.52,1.68v5.71a3,3,0,0,1-.16,1.06,1.79,1.79,0,0,1-.51.72l-6.24,5.18a1.66,1.66,0,0,1-.6.34A2.81,2.81,0,0,1,179.85,99.81ZM165.6,94.1h20.45a1.85,1.85,0,0,0,1.32-.41,1.81,1.81,0,0,0,.4-1.32V86.66a1.81,1.81,0,0,0-.4-1.32,1.85,1.85,0,0,0-1.32-.41h-4.66V68.8h4.66a1.46,1.46,0,0,0,1.72-1.72V61.27a1.81,1.81,0,0,0-.4-1.32,1.85,1.85,0,0,0-1.32-.41H165.6a1.48,1.48,0,0,0-1.73,1.73v5.81a1.85,1.85,0,0,0,.41,1.32,1.81,1.81,0,0,0,1.32.4h4.75V84.93H165.6a1.48,1.48,0,0,0-1.73,1.73v5.71a1.48,1.48,0,0,0,1.73,1.73Zm17.85-4.32H168.19V89.3h7.44v-25h-7.44v-.48h15.26v.48h-7.34v25h7.34Z" fill="#3f3f3f"/><path d="M208.94,94.15l-6.24,5.18a1.66,1.66,0,0,1-.6.34,2.81,2.81,0,0,1-.89.14H194a1.9,1.9,0,0,1-2.2-2.21V66.5a3,3,0,0,1,.16-1.06,1.93,1.93,0,0,1,.51-.72l6.19-5.23a1.87,1.87,0,0,1,.65-.31,3.14,3.14,0,0,1,.89-.12h5a4.08,4.08,0,0,1,1.77.34,4.77,4.77,0,0,1,1.44,1.1l3.32,3.84,5.8-4.85a1.87,1.87,0,0,1,.65-.31,3.14,3.14,0,0,1,.89-.12h7.2a1.91,1.91,0,0,1,2.21,2.21v31.1a3,3,0,0,1-.17,1.06,1.76,1.76,0,0,1-.5.72l-6.24,5.18a1.66,1.66,0,0,1-.6.34,2.86,2.86,0,0,1-.89.14h-7.2a2.26,2.26,0,0,1-1.68-.53,2.3,2.3,0,0,1-.53-1.68V91.89l-1.06-1.29v1.77a3,3,0,0,1-.16,1.06A1.79,1.79,0,0,1,208.94,94.15Zm-1.53-.05a1.85,1.85,0,0,0,1.32-.41,1.81,1.81,0,0,0,.4-1.32V76.53l8.21,9.94v5.9a1.48,1.48,0,0,0,1.73,1.73h7.2A1.48,1.48,0,0,0,228,92.37V61.27a1.48,1.48,0,0,0-1.73-1.73h-7.2a1.48,1.48,0,0,0-1.73,1.73V71.49L208,60.84a3.78,3.78,0,0,0-1.27-1,3.84,3.84,0,0,0-1.56-.29h-5a1.81,1.81,0,0,0-1.32.41,1.77,1.77,0,0,0-.41,1.32v31.1a1.77,1.77,0,0,0,.41,1.32,1.81,1.81,0,0,0,1.32.41Zm-2.6-29.86,17.67,19.88V63.86H223V89.78h-.48V84.84L204.33,64.48l-.12-.09a.21.21,0,0,0-.12,0s-.05,0-.07,0a.29.29,0,0,0,0,.09v25.3h-.48V64.39a.49.49,0,0,1,.19-.43.64.64,0,0,1,.38-.15.57.57,0,0,1,.34.1A2.28,2.28,0,0,1,204.81,64.24Z" fill="#3f3f3f"/><path d="M234.09,99.81a1.9,1.9,0,0,1-2.2-2.21V92a3,3,0,0,1,.16-1.06,1.79,1.79,0,0,1,.51-.72l4.8-4a7.75,7.75,0,0,1-4-2.62,8.34,8.34,0,0,1-1.46-5.3v-5a9.85,9.85,0,0,1,.71-3.84,7.72,7.72,0,0,1,2.07-2.83l6.24-5.23a9.41,9.41,0,0,1,3.22-1.66,14.54,14.54,0,0,1,4.36-.6h13.44a2.3,2.3,0,0,1,1.68.53,2.26,2.26,0,0,1,.53,1.68V67A2.77,2.77,0,0,1,264,68a1.91,1.91,0,0,1-.5.72l-4.32,3.6A9.52,9.52,0,0,1,264,74.88q1.85,1.84,1.85,5.73v5a9.67,9.67,0,0,1-.72,3.84A7.32,7.32,0,0,1,263,92.32l-6.19,5.19a9.75,9.75,0,0,1-3.27,1.7,14.46,14.46,0,0,1-4.32.6Zm21.36-5.71a11.21,11.21,0,0,0,7.28-2.18,7.67,7.67,0,0,0,2.66-6.27v-5q0-4-2.06-5.76a10.65,10.65,0,0,0-5.43-2.21l-7.15-1a1.25,1.25,0,0,1-1-.48,1.62,1.62,0,0,1-.34-1,1.52,1.52,0,0,1,.34-1,1.14,1.14,0,0,1,1-.41h11.18A1.48,1.48,0,0,0,263.66,67V61.27a1.48,1.48,0,0,0-1.73-1.73H248.49a11.14,11.14,0,0,0-7.29,2.18A7.69,7.69,0,0,0,238.56,68v5q0,4,2,5.76A10.47,10.47,0,0,0,246,81l7.2,1a1.27,1.27,0,0,1,.93.44,1.85,1.85,0,0,1,.32,1.2,1.56,1.56,0,0,1-.32,1,1.1,1.1,0,0,1-.93.41H240.29a1.48,1.48,0,0,0-1.73,1.73v5.61a1.77,1.77,0,0,0,.41,1.32,1.81,1.81,0,0,0,1.32.41Zm3.89-30.24v.48H248.69a4.59,4.59,0,0,0-3.22,1.1,3.64,3.64,0,0,0-1.2,2.79v3.93a2.71,2.71,0,0,0,2.45,3.22l10.13,2.06a4.47,4.47,0,0,1,2.37,1.25,4.91,4.91,0,0,1,.94,3.46v2.78a4.59,4.59,0,0,1-1.44,3.48,5.43,5.43,0,0,1-3.89,1.37h-12V89.3h12a5,5,0,0,0,3.53-1.22,4.11,4.11,0,0,0,1.32-3.15V82.15a4.61,4.61,0,0,0-.79-3.1,4.06,4.06,0,0,0-2.14-1.13l-10.13-2.06a4.07,4.07,0,0,1-2-1,3.67,3.67,0,0,1-.79-2.72V68.23a4.1,4.1,0,0,1,1.34-3.15,5.11,5.11,0,0,1,3.56-1.22Z" fill="#3f3f3f"/><path d="M296.11,97.51a11.77,11.77,0,0,1-4.7,2.23,31.46,31.46,0,0,1-7.78.79,25.35,25.35,0,0,1-7.7-1,12.28,12.28,0,0,1-4.71-2.62,8.66,8.66,0,0,1-2.35-3.74,14.92,14.92,0,0,1-.65-4.37V73.89a12.91,12.91,0,0,1,.63-4.1,6.83,6.83,0,0,1,2.25-3.24l6.24-5.19A11.74,11.74,0,0,1,282,59.13a31.35,31.35,0,0,1,7.8-.79,31.91,31.91,0,0,1,7.7.77,12.43,12.43,0,0,1,4.71,2.13,7,7,0,0,1,2.33,3.27,13.38,13.38,0,0,1,.62,4.15V85a13,13,0,0,1-.62,4.08,6.94,6.94,0,0,1-2.26,3.21ZM304.7,85V68.66a11.59,11.59,0,0,0-.65-4,6.81,6.81,0,0,0-2.3-3.09,11.93,11.93,0,0,0-4.56-2,38.18,38.18,0,0,0-14.76,0,12,12,0,0,0-4.58,2,6.77,6.77,0,0,0-2.31,3.09,11.83,11.83,0,0,0-.65,4V85a11.83,11.83,0,0,0,.65,4,6.66,6.66,0,0,0,2.31,3.07,12.28,12.28,0,0,0,4.58,2,38.18,38.18,0,0,0,14.76,0,12.24,12.24,0,0,0,4.56-2,6.71,6.71,0,0,0,2.3-3.07A11.59,11.59,0,0,0,304.7,85Zm-5.23-1.11a5.93,5.93,0,0,1-2.06,4.68q-2.07,1.8-7.68,1.8c-3.75,0-6.29-.6-7.64-1.8a6,6,0,0,1-2-4.68V69.76a6,6,0,0,1,2-4.68c1.35-1.2,3.89-1.8,7.64-1.8s6.3.6,7.68,1.8a5.93,5.93,0,0,1,2.06,4.68Zm-18.91,0a5.47,5.47,0,0,0,1.92,4.35c1.28,1.1,3.69,1.65,7.25,1.65s6-.55,7.29-1.65a5.42,5.42,0,0,0,2-4.35V69.76a5.4,5.4,0,0,0-2-4.34c-1.31-1.1-3.74-1.66-7.29-1.66s-6,.56-7.25,1.66a5.45,5.45,0,0,0-1.92,4.34Zm5.23-.62V70.39a2,2,0,0,1,.72-1.56c.48-.43,1.58-.65,3.31-.65s2.83.22,3.31.65a2,2,0,0,1,.72,1.56V83.3a2.08,2.08,0,0,1-.72,1.61c-.48.43-1.58.65-3.31.65s-2.83-.22-3.31-.65A2.08,2.08,0,0,1,285.79,83.3Zm.48,0a1.74,1.74,0,0,0,.19.84,1.47,1.47,0,0,0,.72.6V75.62a1.74,1.74,0,0,0-.19-.84,1.27,1.27,0,0,0-.72-.55Z" fill="#3f3f3f"/><path d="M326.06,94.15l-6.24,5.18a1.66,1.66,0,0,1-.6.34,2.81,2.81,0,0,1-.89.14h-7.2a2.27,2.27,0,0,1-1.68-.53,2.3,2.3,0,0,1-.52-1.68V66.5a3,3,0,0,1,.16-1.06,1.83,1.83,0,0,1,.51-.72l6.19-5.23a1.79,1.79,0,0,1,.65-.31,3.12,3.12,0,0,1,.88-.12h5a4.08,4.08,0,0,1,1.77.34,4.77,4.77,0,0,1,1.44,1.1l3.32,3.84,5.8-4.85a1.87,1.87,0,0,1,.65-.31,3.14,3.14,0,0,1,.89-.12h7.2a1.91,1.91,0,0,1,2.21,2.21v31.1a3,3,0,0,1-.17,1.06,1.76,1.76,0,0,1-.5.72l-6.24,5.18a1.66,1.66,0,0,1-.6.34,2.86,2.86,0,0,1-.89.14H330a1.91,1.91,0,0,1-2.21-2.21V91.89l-1.06-1.29v1.77a2.77,2.77,0,0,1-.17,1.06A1.76,1.76,0,0,1,326.06,94.15Zm-1.54-.05a1.86,1.86,0,0,0,1.33-.41,1.81,1.81,0,0,0,.4-1.32V76.53l8.21,9.94v5.9a1.48,1.48,0,0,0,1.73,1.73h7.2a1.48,1.48,0,0,0,1.73-1.73V61.27a1.48,1.48,0,0,0-1.73-1.73h-7.2a1.48,1.48,0,0,0-1.73,1.73V71.49l-9.31-10.65a3.78,3.78,0,0,0-1.27-1,3.91,3.91,0,0,0-1.56-.29h-5A1.8,1.8,0,0,0,316,60a1.77,1.77,0,0,0-.41,1.32v31.1a1.77,1.77,0,0,0,.41,1.32,1.8,1.8,0,0,0,1.31.41Zm-2.59-29.86L339.6,84.12V63.86h.48V89.78h-.48V84.84L321.45,64.48l-.12-.09a.28.28,0,0,0-.12,0s0,0-.07,0a.15.15,0,0,0,0,.09v25.3h-.48V64.39a.49.49,0,0,1,.19-.43.61.61,0,0,1,.38-.15.57.57,0,0,1,.34.1A2.28,2.28,0,0,1,321.93,64.24Z" fill="#3f3f3f"/></svg>