<svg xmlns="http://www.w3.org/2000/svg" viewBox="0 0 382.81 74.57"><defs><style>.cls-1,.cls-2{fill:#3a4154;}.cls-2{fill-rule:evenodd;}</style></defs><g id="Layer_2" data-name="Layer 2"><g id="Layer_1-2" data-name="Layer 1"><path class="cls-1" d="M91.84,52.73h14.32c.1,5.15,5,9.38,11.63,9.38,6.39,0,10.61-3.3,10.61-8.35,0-3.91-2.88-6.69-9-8.54l-8.65-2.48C95.24,38.62,92.46,29.25,92.46,22.87,92.46,10.2,103.38,1.75,117,1.75c13.39,0,23.69,8.14,23.69,21.63H126.34c0-5.05-3.5-9-9.68-9-5.56,0-9.78,3.4-9.78,8.14,0,1.75.51,5.45,7.93,7.52l7.93,2.26c10.71,3,20.08,8.65,20.08,20.7,0,14.11-12,21.53-25.44,21.53C102.24,74.57,91.84,65.3,91.84,52.73Z"/><path class="cls-1" d="M203.59,25.65v48H190.1v-6c-3.4,4.74-10.09,6.9-15.45,6.9-12.36,0-23.59-9.58-23.59-25s11.23-25,23.59-25c5.56,0,12,2.06,15.45,6.9V25.65Zm-13.9,23.89a12.41,12.41,0,0,0-12.47-12.36,12.29,12.29,0,0,0-12.46,12.36,12.47,12.47,0,0,0,24.93,0Z"/><path class="cls-1" d="M217.19,0h13.49V73.64H217.19Z"/><path class="cls-1" d="M321.21,47.28V73.64H307.62V48.31c0-7.52-3.91-10.61-8.65-10.61-5.36-.11-9.17,3.29-9.48,10.5V73.64H276V48.2c0-7.52-3.91-10.5-8.45-10.5-4.84,0-9.78,2.26-9.78,10.91v25H244.28v-48h13.49v8.54c1.44-6.59,8.24-9.78,13.59-9.78,7.11,0,12.67,3.4,15.45,9.27,3.71-7,11.13-9.27,16.07-9.27C314.93,24.41,321.21,32.86,321.21,47.28Z"/><path class="cls-1" d="M331.1,49.54c0-15.24,12.16-25.13,25.86-25.13s25.85,9.89,25.85,25.13-12.15,25-25.85,25S331.1,64.68,331.1,49.54Zm38,0C369.11,42,363.65,37,357,37S344.8,42,344.8,49.54,350.26,62,357,62,369.11,57,369.11,49.54Z"/><path class="cls-2" d="M36.64,1.75C56.85,1.75,73.27,18,73.27,37.92S56.85,74.09,36.64,74.09,0,57.88,0,37.92,16.42,1.75,36.64,1.75Zm0,2.45A34,34,0,0,1,70.82,37.92c0,18.62-15.33,33.71-34.18,33.71S2.45,56.54,2.45,37.92,17.78,4.2,36.64,4.2Z"/><path class="cls-2" d="M38.63,34.37s9.51-2.45,17.13,3a18.07,18.07,0,0,1,7.58,13.7S54.06,51,47.06,46.82C41,43.16,38.63,34.37,38.63,34.37Z"/><path class="cls-2" d="M8.16,15.23A29.79,29.79,0,0,0,5.24,19.3a44.73,44.73,0,0,1,6.2-2.47c2.63-.81,5.53-1.39,7.92-.94C24.92,16.94,29.5,20,35.86,34.75A28.6,28.6,0,0,0,58,52.1a27.52,27.52,0,0,0,13-1.39,31.7,31.7,0,0,0,1-3.16c-2,.89-7.71,3-13.57,2A26,26,0,0,1,38.26,33.73c-7-16.12-12.32-19.23-18.4-20.37-2.78-.53-6.15.07-9.21,1C9.78,14.63,9,14.93,8.16,15.23Z"/><path class="cls-2" d="M63.4,56.37a1.31,1.31,0,0,1-2.61-.25,30.94,30.94,0,0,0-.22-7.24A9.56,9.56,0,0,0,59.68,46a2.48,2.48,0,0,0-1.28-1.29,1.29,1.29,0,0,1-.81-1.64,1.33,1.33,0,0,1,1.67-.8c1.66.58,2.8,2.18,3.44,4.26C64,50.58,63.4,56.37,63.4,56.37Z"/></g></g></svg>