<svg width="306" height="142" viewBox="0 0 306 142" fill="none" xmlns="http://www.w3.org/2000/svg">
<path d="M32.84 48.56C31.7238 50.9619 30.1356 53.1147 28.17 54.89C26.1486 56.6967 23.7948 58.0927 21.24 59C18.4843 59.985 15.5763 60.4758 12.65 60.45C10.3927 60.4192 8.17888 59.8245 6.21 58.72C3.78673 57.3207 1.6738 55.4425 0 53.2L6 41.51C6.45139 42.3048 7.02508 43.0236 7.7 43.64C8.46366 44.3773 9.31703 45.0157 10.24 45.54C11.1225 46.0574 12.0455 46.5022 13 46.87C13.809 47.1931 14.6691 47.3692 15.54 47.39C16.2191 47.3856 16.8935 47.2777 17.54 47.07C18.2381 46.8477 18.8939 46.5097 19.48 46.07C20.0438 45.6713 20.523 45.1649 20.89 44.58C21.2482 43.9756 21.4285 43.2823 21.41 42.58C21.4046 41.2776 20.9647 40.0142 20.16 38.99C19.2593 37.8202 18.2182 36.7656 17.06 35.85C15.82 34.85 14.48 33.85 13.06 32.85C11.6561 31.8638 10.3197 30.7848 9.06 29.62C7.87777 28.5117 6.84869 27.2505 6 25.87C5.12244 24.4711 4.66114 22.8514 4.67 21.2C4.67525 18.3976 5.54863 15.6657 7.17 13.38C8.86144 10.9385 10.9785 8.82145 13.42 7.13001C15.9434 5.38319 18.6961 3.99338 21.6 3.00001C24.2942 2.0193 27.1332 1.49543 30 1.45001C31.3816 1.45188 32.7569 1.63683 34.09 2.00001C35.3156 2.31478 36.4585 2.89133 37.44 3.69001C38.3952 4.4889 39.1662 5.48503 39.7 6.61001C40.297 7.99451 40.5837 9.49291 40.54 11C40.5384 11.7577 40.4715 12.5138 40.34 13.26C40.21 14.01 40.08 14.82 39.98 15.68L28.29 19.1C28.4 18.67 28.49 18.24 28.57 17.81C28.6498 17.3846 28.69 16.9528 28.69 16.52C28.7918 15.2935 28.4974 14.0667 27.85 13.02C27.5947 12.6734 27.2597 12.3934 26.8733 12.2036C26.4868 12.0139 26.0604 11.92 25.63 11.93C25.0765 11.9662 24.5391 12.1306 24.06 12.41C23.4017 12.7614 22.7817 13.1803 22.21 13.66C21.5857 14.1745 21.0517 14.7897 20.63 15.48C20.2109 16.1551 19.9924 16.9354 20 17.73C19.945 18.9158 20.3296 20.0802 21.08 21C21.8687 21.92 22.7767 22.7305 23.78 23.41C24.85 24.17 26.02 24.93 27.28 25.71C28.5918 26.5311 29.7747 27.5421 30.79 28.71C31.946 30.0928 32.859 31.6617 33.49 33.35C34.2811 35.6137 34.6505 38.0031 34.58 40.4C34.6178 43.2159 34.0232 46.0045 32.84 48.56V48.56Z" fill="#3A4154"/>
<path d="M63.8699 52.39C62.5824 54.4438 60.9323 56.2465 58.9999 57.71C57.2223 59.0708 55.2181 60.1067 53.08 60.77C51.0457 61.4185 48.925 61.7556 46.7899 61.77C45.5036 61.7625 44.2257 61.5602 42.9999 61.17C41.7416 60.7808 40.5655 60.1639 39.5299 59.35C38.4804 58.5077 37.6186 57.4552 36.9999 56.26C36.3025 54.9185 35.9584 53.4214 35.9999 51.91V51.26C35.9969 51.044 36.0239 50.8286 36.08 50.62C36.2866 48.4067 36.62 45.74 37.08 42.62C37.54 39.5 38.0499 36.25 38.6099 32.87C39.1399 29.48 39.7399 26.08 40.3799 22.67C41.0199 19.26 41.5999 16.15 42.1099 13.36C42.6199 10.57 43.1099 8.24001 43.4399 6.36001C43.7699 4.48001 44.0599 3.36001 44.1699 2.93001C45.2999 2.83001 46.6399 2.69001 48.1699 2.53001C49.6999 2.37001 51.1699 2.23001 52.5199 2.13001L57.4399 1.64001C56.0399 8.14001 54.8033 14.0233 53.7299 19.29C53.2499 21.55 52.7799 23.8067 52.3199 26.06C51.8599 28.3133 51.4299 30.3833 51.0299 32.27C50.6299 34.15 50.2799 35.78 50.0299 37.15C49.7799 38.52 49.4899 39.63 49.3099 40.49C49.1299 41.35 48.8999 42.49 48.6599 43.76C48.433 44.9402 48.3125 46.1383 48.2999 47.34C48.2752 48.1287 48.5224 48.9019 48.9999 49.53C49.184 49.7885 49.4269 49.9995 49.7086 50.1455C49.9903 50.2916 50.3026 50.3685 50.6199 50.37C51.0532 50.3778 51.4823 50.2842 51.873 50.0967C52.2636 49.9092 52.605 49.6329 52.8699 49.29C53.498 48.4982 54.0005 47.6145 54.3599 46.67C54.7615 45.6663 55.0597 44.6242 55.2499 43.56C55.4399 42.56 55.6099 41.7 55.7699 41.11C56.0966 39.55 56.4599 37.8167 56.8599 35.91C57.2599 34.0033 57.6633 32.0033 58.0699 29.91C58.4699 27.85 58.8799 25.74 59.2799 23.59L60.4499 17.3C61.3566 12.5733 62.2433 7.68335 63.1099 2.63001L75.3599 1.82001C74.8199 4.62001 74.3366 7.17335 73.91 9.48001C73.48 11.79 73.0099 14.48 72.4999 17.38C71.9899 20.28 71.4099 23.38 70.7699 26.61C70.1299 29.84 69.4899 32.95 68.8699 36.04C68.2499 39.13 67.6499 41.96 67.0599 44.54C66.4374 47.3149 65.3595 49.9675 63.8699 52.39Z" fill="#3A4154"/>
<path d="M67.0601 60.37C68.6667 53.1233 70.1967 46.03 71.6501 39.09C72.2367 36.19 72.8567 33.1267 73.5101 29.9C74.1634 26.6733 74.7801 23.5033 75.3601 20.39C75.9534 17.2833 76.5167 14.2833 77.0501 11.39C77.5834 8.49665 78.0401 5.82999 78.4201 3.38999C80.0001 2.89999 81.5101 2.48999 83.0001 2.13999C84.4901 1.78999 86.0001 1.47999 87.6301 1.20999C89.1062 0.951257 90.6015 0.81745 92.1001 0.809987C94.2011 0.731855 96.2919 1.13906 98.2101 1.99999C99.7879 2.74646 101.161 3.86524 102.21 5.25999C103.254 6.69204 103.996 8.32185 104.39 10.05C104.824 12.0028 105.029 13.9997 105 16C105.006 18.9783 104.446 21.9307 103.35 24.7C102.297 27.4173 100.797 29.9389 98.9101 32.16C97.1354 34.2773 94.9778 36.0414 92.5501 37.36C90.2653 38.6206 87.6995 39.2844 85.0901 39.29H84.2101C83.7701 41.1167 83.3667 43.1167 83.0001 45.29C82.6201 47.44 82.3001 49.42 82.0001 51.29C81.6201 53.4433 81.2867 55.5933 81.0001 57.74L67.0601 60.37ZM87.7701 20.63C87.1834 23.81 86.5401 27.1967 85.8401 30.79C86.8407 30.5027 87.7636 29.9934 88.5401 29.3C89.5647 28.4199 90.4483 27.3879 91.1601 26.24C92.0085 24.8721 92.6583 23.3906 93.0901 21.84C93.5793 20.1365 93.8251 18.3723 93.8201 16.6C93.9325 14.9857 93.4604 13.3849 92.4901 12.09C92.1423 11.6324 91.6973 11.2578 91.1872 10.9932C90.677 10.7286 90.1144 10.5806 89.5401 10.56C89.0001 14.11 88.3601 17.46 87.7701 20.63Z" fill="#3A4154"/>
<path d="M98.49 60.37L109.05 3.06001L134.52 0.890015C134.14 2.07001 133.82 3.28001 133.52 4.51002C133.25 5.51002 133 6.60001 132.76 7.70001C132.52 8.80001 132.31 9.78001 132.15 10.64C131.61 10.64 130.85 10.73 129.86 10.76L126.67 10.84C125.54 10.84 124.4 10.84 123.25 10.84H120.25L117.43 25.27C119.097 25.1633 120.657 25.0833 122.11 25.03C123.29 24.97 124.5 24.95 125.73 24.95C126.96 24.95 127.88 24.95 128.47 24.87C128.26 26.37 128.06 27.87 127.87 29.3C127.68 30.73 127.45 32.23 127.19 33.73C126.65 33.79 125.77 33.83 124.57 33.85L120.9 34C119.5 34.06 117.97 34.11 116.3 34.16L113.56 49L125.33 47.15L124.53 56.34L98.49 60.37Z" fill="#3A4154"/>
<path d="M125.65 60.37C127.097 53.2166 128.493 46.2166 129.84 39.37C130.33 36.47 130.84 33.45 131.46 30.31C132.08 27.17 132.6 24.05 133.11 20.96C133.62 17.87 134.11 14.89 134.56 12.01C135.01 9.12997 135.38 6.51997 135.65 4.14997C138.882 3.14233 142.199 2.42942 145.56 2.01997C149.062 1.56314 152.589 1.33266 156.12 1.32997C157.882 1.27928 159.64 1.52607 161.32 2.05997C162.554 2.45123 163.664 3.15788 164.54 4.10997C165.322 5.002 165.887 6.06307 166.19 7.20997C166.531 8.4984 166.696 9.8272 166.68 11.16C166.677 13.3198 166.294 15.4623 165.55 17.49C164.8 19.5678 163.792 21.5433 162.55 23.37C161.289 25.2195 159.827 26.9233 158.19 28.45C156.614 29.9366 154.841 31.1985 152.92 32.2C153.92 34.35 154.92 36.7 156.02 39.2C157.12 41.7 158.15 44.2 159.12 46.5C160.2 49.1666 161.303 51.8533 162.43 54.56L149.91 59C148.843 55.56 147.877 52.3366 147.01 49.33C146.63 48.09 146.26 46.82 145.88 45.5L144.88 41.75C144.56 40.57 144.29 39.51 144.08 38.57C143.893 37.8136 143.759 37.045 143.68 36.27L142.68 36.59C142.36 38.31 141.97 40.31 141.51 42.59C141.05 44.9 140.64 47.13 140.26 49.28C139.78 51.8 139.26 54.35 138.81 56.93L125.65 60.37ZM144.59 25.37C145.906 25.162 147.175 24.7254 148.34 24.08C149.835 23.3205 151.252 22.4161 152.57 21.38C153.814 20.4112 154.962 19.3263 156 18.14C156.818 17.3396 157.331 16.2784 157.45 15.14C157.462 14.8787 157.418 14.618 157.321 14.3749C157.225 14.1319 157.078 13.9121 156.89 13.73C156.433 13.3441 155.892 13.0702 155.31 12.93C154.588 12.7331 153.847 12.6091 153.1 12.56C152.29 12.51 151.46 12.48 150.6 12.48C150.01 12.48 149.4 12.48 148.78 12.48C148.16 12.48 147.62 12.48 147.13 12.48L144.59 25.37Z" fill="#3A4154"/>
<path d="M161.76 60.45C163.26 52.93 164.71 45.5967 166.11 38.45C166.65 35.3767 167.213 32.1934 167.8 28.9C168.4 25.59 168.95 22.33 169.46 19.1C169.97 15.87 170.46 12.75 170.91 9.71002C171.36 6.67002 171.73 3.92002 172 1.45002C173.23 1.51002 174.37 1.57002 175.42 1.65002C176.47 1.73002 177.5 1.80002 178.52 1.85002C179.54 1.90002 180.58 1.95002 181.63 1.98002C182.68 2.01002 183.82 1.98002 185.05 1.98002C184.137 5.79336 183.237 9.60669 182.35 13.42C181.463 17.2334 180.643 21.0934 179.89 25L187.89 24.11C188.65 20.2967 189.317 16.6034 189.89 13.03C190.463 9.45669 191.243 5.76002 192.23 1.94002C193.46 1.73002 194.83 1.56002 196.34 1.42002L200.53 1.06002C201.82 0.950024 203.35 0.820024 205.12 0.650024C204.373 3.06336 203.667 5.70669 203 8.58002C202.32 11.46 201.67 14.44 201 17.58C200.33 20.72 199.74 23.8 199.15 26.97C198.56 30.14 198.02 33.15 197.54 35.97C196.353 42.79 195.25 49.7734 194.23 56.92L181.66 58.37C182.36 55.15 182.97 52.01 183.51 48.94C184.05 46.3667 184.6 43.68 185.16 40.88C185.72 38.08 186.163 35.69 186.49 33.71L178.68 34.44C178.3 36.48 177.857 38.8434 177.35 41.53C176.843 44.2167 176.37 46.77 175.93 49.19L174.16 57.89L161.76 60.45Z" fill="#3A4154"/>
<path d="M197.3 60.37L207.86 3.06001L233.33 0.890015C232.96 2.07001 232.63 3.28001 232.33 4.51002C232.07 5.51002 231.81 6.60001 231.57 7.70001C231.33 8.80001 231.13 9.78001 230.96 10.64C230.43 10.64 229.66 10.73 228.67 10.76L225.48 10.84C224.35 10.84 223.21 10.84 222.06 10.84H219.06L216.23 25.27C217.897 25.1633 219.457 25.0833 220.91 25.03C222.09 24.97 223.3 24.95 224.54 24.95C225.78 24.95 226.68 24.95 227.28 24.87C227.06 26.37 226.86 27.87 226.67 29.3C226.48 30.73 226.25 32.23 225.99 33.73C225.45 33.79 224.58 33.83 223.37 33.85L219.7 33.97C218.3 34.03 216.77 34.08 215.11 34.13L212.38 49L224.14 47.15L223.34 56.34L197.3 60.37Z" fill="#3A4154"/>
<path d="M224.46 60.37C225.92 53.2167 227.32 46.2167 228.66 39.37C229.14 36.47 229.677 33.45 230.27 30.31C230.86 27.16 231.41 24.05 231.92 20.96C232.43 17.87 232.92 14.89 233.37 12.01C233.82 9.13003 234.19 6.52003 234.46 4.15003C237.693 3.14345 241.009 2.43056 244.37 2.02003C247.871 1.5632 251.399 1.33272 254.93 1.33003C256.692 1.27857 258.45 1.52538 260.13 2.06003C261.364 2.45128 262.473 3.15794 263.35 4.11003C264.133 5.01649 264.698 6.09079 265 7.25003C265.333 8.53989 265.494 9.86799 265.48 11.2C265.477 13.3599 265.094 15.5024 264.35 17.53C263.6 19.6079 262.592 21.5833 261.35 23.41C260.096 25.2616 258.636 26.9658 257 28.49C255.421 29.9769 253.644 31.2388 251.72 32.24C252.693 34.3934 253.727 36.7267 254.82 39.24C255.92 41.8 256.96 44.24 257.92 46.54C259 49.2067 260.103 51.8934 261.23 54.6L248.73 59C247.65 55.56 246.68 52.3367 245.82 49.33C245.45 48.09 245.07 46.82 244.7 45.5C244.33 44.18 243.97 42.93 243.7 41.75C243.43 40.57 243.11 39.51 242.89 38.57C242.708 37.8126 242.574 37.0444 242.49 36.27L241.44 36.59C241.12 38.31 240.73 40.31 240.27 42.59C239.81 44.87 239.387 47.1167 239 49.33C238.52 51.85 238.037 54.4 237.55 56.98L224.46 60.37ZM243.41 25.37C244.723 25.1631 245.989 24.7264 247.15 24.08C248.647 23.3183 250.067 22.4141 251.39 21.38C252.645 20.4069 253.804 19.3152 254.85 18.12C255.668 17.3196 256.181 16.2585 256.3 15.12C256.312 14.8588 256.268 14.598 256.171 14.355C256.075 14.1119 255.928 13.8921 255.74 13.71C255.287 13.324 254.749 13.05 254.17 12.91C253.444 12.7131 252.7 12.5892 251.95 12.54C251.14 12.49 250.31 12.46 249.45 12.46C248.86 12.46 248.25 12.46 247.64 12.46C247.03 12.46 246.47 12.46 245.98 12.46L243.41 25.37Z" fill="#3A4154"/>
<path d="M303.65 29.14C302.78 32.835 301.523 36.4281 299.9 39.86C298.437 42.9651 296.611 45.8856 294.46 48.56C292.548 50.963 290.382 53.1524 288 55.09C285.924 56.7785 283.617 58.1624 281.15 59.2C279.058 60.0926 276.814 60.5714 274.54 60.61C272.872 60.6399 271.219 60.2983 269.7 59.61C268.223 58.9149 266.926 57.8883 265.91 56.61C264.738 55.0997 263.875 53.3735 263.37 51.53C262.706 49.1038 262.397 46.5946 262.45 44.08C262.471 40.8783 262.846 37.6888 263.57 34.57C264.343 31.191 265.369 27.8749 266.64 24.65C267.923 21.3895 269.513 18.2586 271.39 15.3C273.174 12.4693 275.256 9.83763 277.6 7.44997C279.709 5.26511 282.149 3.42592 284.83 1.99997C287.312 0.683846 290.08 -0.00290661 292.89 -2.71723e-05C294.99 -0.0771991 297.07 0.439214 298.89 1.48997C300.432 2.44833 301.708 3.77918 302.6 5.35997C303.511 7.03465 304.149 8.8441 304.49 10.72C304.862 12.6984 305.049 14.707 305.05 16.72C305.075 20.9007 304.605 25.0697 303.65 29.14V29.14ZM274.76 43.85C274.955 44.4591 275.253 45.0306 275.64 45.54C276.035 46.0346 276.512 46.4575 277.05 46.79C277.595 47.1321 278.226 47.3124 278.87 47.31C281.259 47.3218 283.563 46.4286 285.32 44.81C287.252 43.0834 288.84 41.0069 290 38.69C291.246 36.2462 292.202 33.6654 292.85 31C293.48 28.5519 293.815 26.0375 293.85 23.51C293.847 22.8083 293.807 22.1074 293.73 21.41C293.657 20.6928 293.496 19.9874 293.25 19.31C293.009 18.6785 292.622 18.113 292.12 17.66C291.542 17.1843 290.807 16.9417 290.06 16.98C288.388 16.967 286.745 17.4132 285.31 18.27C283.813 19.1678 282.489 20.326 281.4 21.69C280.209 23.177 279.202 24.802 278.4 26.53C277.54 28.3035 276.795 30.1306 276.17 32C275.571 33.7718 275.126 35.5919 274.84 37.44C274.593 38.9579 274.459 40.4922 274.44 42.03C274.448 42.6499 274.556 43.2644 274.76 43.85V43.85Z" fill="#3A4154"/>
<path d="M82.37 129.16C81.2512 131.56 79.6634 133.713 77.7 135.49C75.6786 137.297 73.3248 138.693 70.77 139.6C68.0141 140.584 65.1063 141.075 62.18 141.05C59.9195 141.019 57.7025 140.425 55.73 139.32C53.3099 137.92 51.2003 136.042 49.53 133.8L55.53 122.11C55.9808 122.902 56.5508 123.621 57.22 124.24C57.986 124.975 58.839 125.613 59.76 126.14C60.6618 126.66 61.605 127.105 62.58 127.47C63.3893 127.792 64.2493 127.968 65.12 127.99C65.7991 127.985 66.4735 127.878 67.12 127.67C67.8159 127.45 68.4687 127.111 69.05 126.67C69.6138 126.271 70.093 125.765 70.46 125.18C70.8259 124.578 71.01 123.884 70.99 123.18C70.9846 121.878 70.5447 120.614 69.74 119.59C68.8359 118.42 67.7914 117.365 66.63 116.45C65.4 115.45 64.06 114.45 62.63 113.45C61.2202 112.475 59.8833 111.399 58.63 110.23C57.4274 109.113 56.3812 107.838 55.52 106.44C54.6565 105.037 54.2092 103.417 54.23 101.77C54.2368 98.988 55.0991 96.2753 56.7 94C58.4045 91.547 60.5389 89.4227 63 87.73C65.5212 85.9742 68.2742 84.5775 71.18 83.58C73.8688 82.6074 76.701 82.0903 79.56 82.05C80.9467 82.0453 82.3282 82.2201 83.67 82.57C84.8892 82.891 86.025 83.4708 87 84.27C87.9574 85.0723 88.7257 86.0763 89.25 87.21C89.8614 88.6044 90.1519 90.1183 90.1 91.64C90.0984 92.3977 90.0315 93.1538 89.9 93.9C89.76 94.65 89.64 95.46 89.53 96.32L77.82 99.7C77.93 99.27 78.02 98.84 78.1 98.41C78.1798 97.9847 78.22 97.5528 78.22 97.12C78.3218 95.8935 78.0274 94.6667 77.38 93.62C77.1247 93.2734 76.7897 92.9934 76.4033 92.8036C76.0169 92.6139 75.5904 92.52 75.16 92.53C74.6063 92.5648 74.0685 92.7292 73.59 93.01C72.9277 93.36 72.3043 93.779 71.73 94.26C71.1089 94.775 70.5783 95.3901 70.16 96.08C69.7374 96.7541 69.5154 97.5345 69.52 98.33C69.4795 99.5016 69.863 100.648 70.6 101.56C71.3916 102.486 72.299 103.306 73.3 104C74.38 104.76 75.55 105.52 76.81 106.3C78.1218 107.121 79.3047 108.132 80.32 109.3C81.476 110.683 82.389 112.252 83.02 113.94C83.8013 116.189 84.1672 118.561 84.1 120.94C84.15 123.775 83.5586 126.585 82.37 129.16V129.16Z" fill="#3A4154"/>
<path d="M83.7 141L94.26 83.66L119.73 81.49C119.35 82.67 119.03 83.88 118.73 85.11C118.46 86.11 118.21 87.2 117.97 88.3C117.73 89.4 117.52 90.38 117.36 91.24C116.82 91.29 116.06 91.33 115.07 91.36L111.88 91.44C110.75 91.44 109.61 91.44 108.46 91.44H105.46L102.64 105.87C104.313 105.763 105.873 105.683 107.32 105.63C108.5 105.57 109.71 105.55 110.94 105.55C112.17 105.55 113.09 105.55 113.68 105.47C113.47 106.97 113.27 108.47 113.08 109.9C112.89 111.33 112.66 112.83 112.4 114.33C111.86 114.33 110.98 114.43 109.78 114.45L106.11 114.57C104.71 114.63 103.18 114.68 101.51 114.73L98.77 129.6L110.54 127.75L109.74 136.94L83.7 141Z" fill="#3A4154"/>
<path d="M135.77 140L131.42 140.73C131.63 138.95 131.84 137.21 132.06 135.49C132.22 133.98 132.37 132.49 132.5 130.97C132.63 129.45 132.76 128.18 132.87 127.11H125.87L122.65 138.71C121.47 138.87 120.07 139.05 118.46 139.24L113.95 139.76L108.87 140.4L115.23 119.29L117.93 110.18C118.87 107.013 119.813 103.857 120.76 100.71C121.7 97.57 122.6 94.54 123.46 91.64C124.32 88.74 125.07 86.08 125.71 83.64C129.37 83.3667 133.093 83.0333 136.88 82.64C140.667 82.2467 144.36 81.7333 147.96 81.1C147.8 82.82 147.623 84.9567 147.43 87.51C147.25 90.06 147.07 92.85 146.91 95.85C146.75 98.85 146.59 102.01 146.43 105.28C146.27 108.55 146.1 111.79 145.94 114.96C145.673 122.373 145.38 130.243 145.06 138.57C143.44 138.84 141.83 139.06 140.22 139.22L135.77 140ZM127.77 119H128.94L130.71 118.91L132.44 118.83C132.82 118.829 133.198 118.789 133.57 118.71C133.57 118.39 133.61 117.84 133.69 117.06C133.77 116.28 133.85 115.4 133.93 114.4C134.01 113.4 134.11 112.32 134.22 111.14C134.33 109.96 134.43 108.8 134.54 107.67C134.747 104.93 135.013 101.977 135.34 98.81L135.83 91.81L134.62 91.89L132.77 98.83L127.77 119Z" fill="#3A4154"/>
<path d="M145.76 141C147.213 133.853 148.61 126.853 149.95 120C150.44 117.1 150.95 114.08 151.57 110.94C152.19 107.8 152.71 104.68 153.22 101.59C153.73 98.5 154.22 95.51 154.67 92.64C155.12 89.77 155.49 87.15 155.76 84.78C158.993 83.7737 162.31 83.0576 165.67 82.64C169.173 82.2045 172.7 81.9907 176.23 82C177.992 81.9493 179.75 82.1961 181.43 82.73C182.658 83.1071 183.768 83.7962 184.65 84.73C185.432 85.622 185.997 86.6831 186.3 87.83C186.646 89.1346 186.811 90.4805 186.79 91.83C186.787 93.9899 186.404 96.1324 185.66 98.16C184.91 100.238 183.902 102.213 182.66 104.04C181.399 105.89 179.937 107.593 178.3 109.12C176.721 110.607 174.944 111.869 173.02 112.87C173.987 115.017 175.023 117.35 176.13 119.87C177.237 122.39 178.27 124.823 179.23 127.17C180.3 129.85 181.41 132.54 182.54 135.23L170 139.6C168.927 136.16 167.96 132.937 167.1 129.93C166.72 128.69 166.35 127.42 165.97 126.1L164.92 122.35C164.6 121.17 164.33 120.11 164.12 119.17C163.933 118.414 163.799 117.645 163.72 116.87L162.67 117.19C162.35 118.91 161.96 120.91 161.5 123.19C161.04 125.5 160.63 127.73 160.25 129.88C159.77 132.4 159.25 134.95 158.8 137.53L145.76 141ZM164.7 106C166.016 105.792 167.285 105.355 168.45 104.71C169.945 103.95 171.362 103.046 172.68 102.01C173.941 101.036 175.103 99.941 176.15 98.74C176.971 97.9416 177.484 96.8794 177.6 95.74C177.612 95.4788 177.568 95.218 177.471 94.975C177.375 94.7319 177.228 94.5121 177.04 94.33C176.585 93.9404 176.043 93.666 175.46 93.53C174.738 93.3331 173.997 93.2092 173.25 93.16C172.44 93.16 171.61 93.08 170.75 93.08C170.16 93.08 169.55 93.08 168.93 93.08C168.31 93.08 167.77 93.08 167.28 93.08L164.7 106Z" fill="#3A4154"/>
<path d="M211.33 131.26C209.885 133.277 208.207 135.117 206.33 136.74C204.761 138.109 202.977 139.21 201.05 140C199.412 140.673 197.661 141.03 195.89 141.05C194.302 141.067 192.736 140.678 191.34 139.92C189.891 139.096 188.66 137.937 187.75 136.54C186.638 134.827 185.807 132.946 185.29 130.97C184.639 128.446 184.329 125.846 184.37 123.24C184.372 118.184 185.075 113.153 186.46 108.29C187.752 103.592 189.737 99.1125 192.35 95C194.689 91.2751 197.749 88.0554 201.35 85.53C204.717 83.1963 208.724 81.9631 212.82 82C214.101 81.9987 215.366 82.2751 216.53 82.81C217.692 83.3181 218.734 84.0641 219.59 85C220.492 86.0449 221.19 87.2488 221.65 88.55C222.175 90.05 222.433 91.6308 222.41 93.22V94.22C222.407 94.5847 222.38 94.9488 222.33 95.31L211.77 98.13C211.13 96.79 210.37 96.13 209.51 96.13C208.983 96.1808 208.473 96.3393 208.01 96.5956C207.548 96.8519 207.142 97.2006 206.82 97.62C205.74 98.7952 204.804 100.094 204.03 101.49C203.048 103.21 202.16 104.983 201.37 106.8C200.521 108.738 199.77 110.717 199.12 112.73C198.453 114.73 197.93 116.623 197.55 118.41C197.19 119.847 196.986 121.319 196.94 122.8C196.841 124.05 197.079 125.304 197.63 126.43C197.811 126.75 198.074 127.016 198.393 127.201C198.711 127.385 199.072 127.482 199.44 127.48C200.157 127.434 200.847 127.195 201.44 126.79C202.225 126.312 202.93 125.715 203.53 125.02C204.205 124.265 204.799 123.44 205.3 122.56C205.817 121.711 206.199 120.787 206.43 119.82L215.62 123.53C214.473 126.254 213.034 128.845 211.33 131.26Z" fill="#3A4154"/>
<path d="M215.24 141.05C216.74 133.53 218.19 126.197 219.59 119.05C220.13 115.98 220.69 112.8 221.28 109.49C221.87 106.18 222.42 102.93 222.93 99.7C223.44 96.47 223.93 93.35 224.38 90.31C224.83 87.27 225.2 84.52 225.47 82.05C226.71 82.05 227.85 82.17 228.9 82.25C229.95 82.33 230.98 82.4 232 82.45C233.02 82.5 234.06 82.55 235.1 82.57C236.14 82.59 237.29 82.57 238.53 82.57C237.623 86.39 236.723 90.2067 235.83 94.02C234.937 97.8333 234.117 101.677 233.37 105.55L241.37 104.66C242.123 100.84 242.79 97.1467 243.37 93.58C243.95 90.0134 244.727 86.3167 245.7 82.49C246.94 82.28 248.31 82.11 249.81 81.97L254 81.61C255.29 81.5 256.83 81.37 258.6 81.2C257.85 83.62 257.13 86.27 256.46 89.14C255.79 92.01 255.13 95 254.46 98.09C253.79 101.18 253.2 104.31 252.6 107.48C252 110.65 251.48 113.66 250.99 116.48C249.81 123.3 248.71 130.3 247.69 137.48L235.14 139C235.84 135.78 236.46 132.637 237 129.57C237.54 126.99 238.09 124.31 238.65 121.51C239.21 118.71 239.65 116.33 239.98 114.34L232.16 115.07C231.79 117.07 231.34 119.47 230.83 122.16C230.32 124.85 229.83 127.4 229.42 129.82L227.65 138.52L215.24 141.05Z" fill="#3A4154"/>
</svg>
